<mxfile host="app.diagrams.net" agent="Mozilla/5.0 (Windows NT 10.0; Win64; x64) AppleWebKit/537.36 (KHTML, like Gecko) Chrome/131.0.0.0 Safari/537.36" version="26.0.2">
  <diagram name="Page-1" id="UXuzZiziu87awMKmtA6w">
    <mxGraphModel dx="802" dy="440" grid="1" gridSize="10" guides="1" tooltips="1" connect="1" arrows="1" fold="1" page="1" pageScale="1" pageWidth="1100" pageHeight="850" math="0" shadow="0">
      <root>
        <mxCell id="0" />
        <mxCell id="1" parent="0" />
        <mxCell id="fivIkqlBEdwUjNxBshIO-1" value="" style="shape=image;verticalLabelPosition=bottom;labelBackgroundColor=default;verticalAlign=top;aspect=fixed;imageAspect=0;image=data:image/png,iVBORw0KGgoAAAANSUhEUgAAAzkAAAFyCAYAAADWEhSfAAAAAXNSR0IArs4c6QAAAARnQU1BAACxjwv8YQUAAAAJcEhZcwAADsMAAA7DAcdvqGQAAPlTSURBVHhe7J0FXFRpG8WPAXZ3d3e3a+va3a2ra3d3d3es3d3d3d3dIgaCSMP97nnnzi7rp66BMPH8/c0PuTMDA8x973ueOE8oTQeCIAiCIAiCIAhWTJYsWRA6dGjTzTgmCIIgCIIgCIJgE4jIEQRBEARBEATBphCRIwiCIAiCIAiCTSEiRxAEQRAEQRAEm0JEjiAIgiAIgiAINoWIHEEQBEEQBEEQbAoROYIgCIIgCIIg2BQicgRBEARBEARBsClE5AiCIAiCIAiCYFOIyBEEQRAEQRAEwaYQkSMIgiAIgiAIgk0hIkcQBEEQBEEQBJtCRI4gCIIgCIIgCDaFiBxBEARBEARBEGwKETmCIAiCIAiCINgUInIEQRAEQRAEQbApROQIgiAIgiAIgmBTiMgRBEEQBEEQBMGmEJEjCIIgCIIgCIJNISJHEARBEARBEASbQkSOIAiCIAiCIAg2hYgcQRAEQRAEQRBsChE5giAIgiAIgiDYFCJyBEEQBEEQBEGwKUTkCIIgCIIgCIJgU4jIEQRBEARBEATBphCRIwiCIAiCIAiCTSEiRxAEQRAEQRAEm0JEjiAIgiAIgiAINoWIHEEQBEEQBEEQbIpQmo7xf5vgyJEjuHz5svGZYAmEDRsWlSpVQuLEiY0jgiAIgiAIghC0ZMmSBaFDh1Y3mxI53t7eKFSoEO7evYuYMWMaR4WQxN/fHy9fvsSECRPQsWNH46ggCIIgCIIgBC02K3I8PT2RN29eFCxYEAMGDDCOCiHJ69evUbVqVXTq1Aldu3Y1jgqCIAiCIAhC0GLzIqds2bIYP368cVQISZycnFR2rV27diJyBEEQBEEQhF9GYJEjxgOCIAiCIAiCINgUNi1y/H29sGpGf2RNHgNJcxTDzOV74OUPHNmyEJXyZkHUGCnQZ9Q0PHvvYzwjZPHzcsfyKf2RKWk8ZCpVB6NHj8aADo1QumYD7Dz/2HiUIAiCYFVoGnx9fWFTLj+CIAgWju2Xq/m6oXu1YjifuiUOTm5rOqZzeE4H1FnghrunFyOKccwycMegKqVwNlNr7BjZTB0Z0zQfRp6MihsX9yJRRHXIarClcjV3d3fcuHEDfn5+xhHBEkiWLBkSJkyIUKFCGUcE4dtwf/MQSxcuwp1n7xA+emyUqdMKxTMmgNOt45izcgfcfEKjYMV6qFEoo/GMH0ML8MXc2QvQrG1rOBrHBEEQhKDHvnpyvkHkOH50wcOHz6FFiII0yZPCzfkJXrx1R5xEKRAvRnh4ur3Fi9cfkSRJArx89hgBDrGQIkkseLx1xqNXbxA/SSrEjBJOfd0AX088e/QYbt4BiBorIRIniI7Q8If7O2e8/gAkTRANj/T7HSPHRZKEsdRz/s3/i5xDs9qjfJ/NOHjzKfIlUIfg6+2Ox0+ewMs/NBInS4HoEfj9A/Da6TneuHojUfwECBclAsLpf2T9EosP753x7OVrhI4QFckSJ0L4sP64f/0uvEKFRtKUaeHg44IHT5wQIVp8JEsSGwHeH+D03AmRYsaF8ysnxE+aEtEiOMBH/109evQc0L9O8mRJ4RhGvRz1ep48fQJPP/31JNVfT0TT78OWRM6UKVPUzxA+fHjjiBDS+Pj4oHjx4tiyZYv8XYQfwuvZceQuWBNtl+zHn8Uy/l3ecP3wcqy4GgND25eHscz9MJ5OZ7DhrCMaVMpuHBEEQRB+BSJydAKLnNBvn2LVhFEYuf8lTu1fC4+HZ9C6cX3k6bQCvSokwux+XTH66CvM7tAIq7euwLmbnhg3dziu7liKDbuOInHhVlg9szeiOobG0iHNcdorM/LH88bklWcwd91CJPF+hHHd22OXfyYMLJ0Ec1auw1PfxNi8fTXSxYtkvCIzgUTO0EZ4dv8yujSsA998bbFyeldE0B/h9eExlq3ahFhJUuLpuW1Yf9EBK5dMht/dvZi46TZK50+LG3tPo3S/HsgeMxKeXdqHieuPoHDOXDijX7hfaHkxcUxrXNu0Gm3a98PEo/dQKOZbjOnZEif9f8f2Ze2xd8xAdBs/HwUq1oOT8zN0mzgTBSO/wbBpm1GgQHZsXT4NCUr1xIhWpfXX8wTLV29EjMQp8fz8Dqw9Fworl01FokhhbUrkDBo0CEuWLMHs2bMRNWpU46gQkrCk8927d9i9ezciRrSyNKdgGby5gZz5q6P36gOonSuhcRB4cmEnDt6JiSZ18xlHfpwdc6YgbaNOSC1vUUEQhF9KYJEDihxbwcPDQ8ucObPWrVs344iOj6vWrUIOLWWhKtqoUaP+vrWqWkCLl7ex5mY87P7RxVqWolU15w++mubvo3Wumlfrv/C4uu/ekcVa/FQ5tcOXH2n+Xu5ag3yJtTo9p2qvPby1G4cWa4mz/6Y9eO2hHjulfzPt0J1Xmr/LQ61ktoza7D031fFTC3tpCQrW0R69dNE+Pr2mFUybSVtx8oG679980AZWzqelLVZT69WmiZYqeW5t3oZ92jtP/XUZ7JzZU/tz4GRty5Yt2uYNC7S0UR21AYtOaNsmtdIa9J6nvff00ZyvXtOefPTU/Lzfa60q5tIWHDJ9L4/X17RSaZNofRYf1Xy8nmul0sXRdtxwVfdtm9peK95gnMafxPfjVS1zhKja4oPm1+irzepWUxu17rwWoP97emK91m/iSnXP7jl9tFb9J6nXs0V/PemjhdP6/WX63b18+VJLmTKlNmHCBPW5NTNw4EAtY8aMmr6pNo4IIc0ff/yhFS5cWPv48aNxRBC+k9fXtRyp0mmrzz03Dph4fH6HtmjlKfX/l9ePadPGDdUWrFurrdxxSB3TvD9oxzav1maNG6G1btdK237ynnZ81WStQ7Mm2p5DO7VO7VtrF/T1XtM+ajNn/2V6jiAIgvBLoQ7ImjWrlj17ds1u3NWS5i6D3r17/32rXy6Xcc9/EyZsWISOFAXJE8dFaMcISJAoLqLHTobYERwRJ04ChHP0p1hUj20/ZB5iOV/A0llL8eL1B/j5B6jjDuHCInrcREgWPzoiRouO6NEi/X3f50hVoDwG9u2CRJFf4fDNN4gRPqxxjxsObT2FeElTIUWKFEiZJg/WH7+A1uUzIUvh33Fn/SCUKF0b2+66Ir6jI7xfX8WBUy+QKF5s9ewIsdOjcJ5YOHXoDPy/lsPTf2bHMGERM45RUufhhD177yN1ygQIpf9LXKA6hnepq9/xAYe3nkTcJCnV60mhv561x86jTaXMpucJNoev5xtc2L8Nt1+4GUcC44kje9fj+jNX43NBsHZ8MWPcZOSu2R61i2fFyydP1NFz2xbj7Ie4aNGlJ5oXTYimbXogdPyY2LPtMAJi5UCv3v2QKmZkvDy7G/FzllPPEQRBEIIPuxE5wYMXpvRpghn7X6Bsw5pIFP/nSpoiJs6GBdMHYe+YP7HwgOnCCl1ghA7zEc9d/JAhc2boihUZ06eFY6gPSJqrEnYcPIRmpeNgYPOKGL78lC5WQsPvozdevHlnPD8MokaPhUjRo+pf6TsIo39ffxecuXgXZmnm9vIxXHz0N1EYj3+9nkwZ0sEh1Oc2wPaJ1/tnmDN+CNoPG4WRo0djxOCJGDFwNNbsO6fuP7d3OerXKIlEukDsPnwk+ndri0bNe+DUfWd1P+CDAyvHoFP3YRg1egJGjxyFcSOXwfwX/Qc/LB/QCjVa9FJlXK3qlkOm/KUwdMRojBo5EL8Xr4m7H4yH/gTX9y9Hq/oNsfOq+fUFxhcvbl2Ck6uX8bkgWDthkCi6JxpUbISl+26jYb3a+jFP7N+0EyeP7cCEceOx73YA6hfPjsiJUyJa+AiIHyceEiRKgqiOYXFEP08KZoxj+lKCIAhCsGHzIocZln9uxkGdgAB+HqCOE8dwEeDy5B7uPXbCo0tnceelEz66u8M/IEB/rP449Xjz7Z/nabzP0xsefv7A+xuYOXMbajZsgrhRwiOU5oUPLs91geGJj24ecHP30J+nb0X9fOHj/QEenv9vXc2vG6DffPTH+umPTVW0Gab2qYxO7Rtj/8N3+n2RUap6aWyd0her9l6Ep5c3bh/ZhFM3/XBu31o80uKjXf9ZmNW/Pp7qP4tjzOyoXjwuli9dAy/9ZwjweourD73RvGE5XbeE129euHjmEt49uYsz127B0/MDfHxMmSm+DvPPiXAJUbFKTiwfNwQXHr2Bp4czduy9gAgOkVGyWmnsmNYPK3Zf0F+PD+4c3YSTN8SBjHx8ew9t6tbEkwRFMb5vT/Tp3Rt9+rVHofjeOH7uoXpM7tIN0L5qUbx3D48OXbtj6JgJKBjtJmpXb4n7rj54dHQNei29j0FDe6N3ry74o1ZRnD978W+xGZiEBWpj8ZxRKltZIV8K+EVJrIsj/Xl9hmDa4DrQ9e5Pk71ic+RM+yUBHxV1OwxDyUzxjM8FwcJxcEDUsK548sLFOGDC19MXYcLTCy00Wo5ZgTldi2LFoI6o2GAU3PR10dfHA9lL1EKvXr3Rd8AQjO9XHw6fXFE1twdwDpsYsSKYM/GCIAhCcGHTIodzctbMG4/jT1zw+txWzFrxz5yc6avOwvHVJYwePUPNyUmcvTRaFU+G6pXKYvVdR+TOnAZPLu7D2QuXMWvhMvg7v8SMJdtwYf9KnLz9Auf2rsHx89exaOEieL96hTnLt8A7cgY0bpADU/TN7PaTVxA7QQzs23YArq+vYsrmowi4cQoLtp/Eng3L8MzlLdYt1T++9zRerWlOzoqpY7Hr3ls8P74B05dtUW5lNXtMRNNEH9GiSkX0n/wXstUYgJntKmJM8wpInik3ttwLj0pFkiGcriv2rJ2J0eNH4sTTcOjasjzCOkTE0EWbkMP9FP5s0xfDps9A0d4TUClnYoR1jI6u3TpiXt+G6DD3KDJnyY3QXtex/+A1bJwzHS+iRsL6ZXPxhOkahELTPjPQongiVM6fGUWa9EDigoURPlQoFKvfD7M6VsH4lhX115MT6285oErR5KYfyo7RAryxenQfXAxbED1qF0f4MGFU9iy0gyMKN+uIkgX+EQJh6AKif1T3h42AkmXL4umtczh17Ske3rqGF7fu4bnrR4QKFRqx0uTFnzUKqef9m7AoXr4UIof9/9Oa9sqpf6uFbDH94OHmgg8fPeHq8gauuuqhkPX2+IDX+vvY+bULfPz+kU8U9B/evoGz82t4+piFayiECm3KA/L+929f4ZX+XNePXvD394Xb+3fw8OZjNXUOurq807+mP9z17/v6jYsKMBhPhscHN/25zvrr8ZIZIkLIEC056lXKj4N7D+CDl686H9zfv8LmE9eQJX869ZBVi+cja+1O2HVoHcI/PIX3vhFRsHRuLOzVC5uOXdHfw0+w+K/dCOfgBy8//RzzMmUyrx49iaz5ciOscb4IgiAIwYftu6sJIYqtuautW7cOx44dQ4wYMYyjX+bjm1somyMnMndZidldqxhHP8/p5cNQsvse3Li/H0kjhMWxxQNQvOdG7DpyBLlDX0PFcrVxX0uM4ZMmo0aZAgjt4QqH2LHxNdPkzZPaoOcOT5zZtgjRlKN3AK7vWYd+vXrDM1kRhH13FakaDsaoKsnQuvkg5Cv/O86sWYfYtTtjfLsKCANf7Fg4DZffR4TmcgWnHsfCnBmDkCCyF1r/lgkZ+u5HxxJJMKFLZRzzyoau7RvD8+Qe9Bs3Gg2mHUGnsomwcnBPjF17BN2HDMbuJdOw98wjTNlwAHWLpoLzhV3oPWUvsmeLjIP7zyB51rwoUakBKhZM983Rl1atWuHmzZvirib8FL6uLzBn0kTc9w+DuJFiICByRPxWqiYKpze5re1Yod/3wgdvfV2RNEtVNK+YD/B2xarJYzFyySY4xMiKobP64dGaSZi66SLK122J3h3/wJn9K1GgVH3EjiyZHEEQhOAgsLuazZerCUJI4e35Cq+eBSB2zH8Loq1LxqJVkzqoW68lFuw8axzV8fHC1dOXsHvjSvQdvwOtOg5GgdSxES1tMazeuRmVssdAx7olUK56a5x4/B4OxtO+ndDIVKos0iaIicgp82HD/rOY2qoy3J/ehlemQujQrjVaNc+Dveu24b0v4HJ7L4atuY9uXf5Et649kSW8M5zf/7vX5vKRHYhVpjdWzR+L37JnRrk/6iBpWAdVShcmbBRU7vAHwnm/h0fEFFi4cS86lk2OdVtPIiDAH9PHjEDcgpXRqWt/FEnghVfhMqD8dwgcQQgqHKIlRPvB4zFp2BhVUtqvfce/BQ4pX78rOnTvjcF9RpkEDgkXDXV7jcCV69dx/thKVMiSGe2G/YXbVy9gUr+2iBfFAZWqNhaBIwiCEELIfkIQfhFhHWMgaixvPHN6ZRwxUbFhFyTzf4oLbjHQsHQe46iOFqD6uBxjJMLElRswsXdtRNT3Rx8/uiGOLkpmr9mGLSvnIurbg6hetTb2X3tpPPE7CB0a4cKGRewkiRHOwTTiMF7u2ljarymObNmM/fvPw9/fRxchwKldOxAjeQY1oT1c9OQYMWcOsiWOrJ5Dbu6egh5/XUT9ysXV/CaF/rVNA2hNhA7tiIhRIyJLZv3rhAuHZGmTwNfLR5WmUej4+ulqSv8OsRPEUj1ggiAIgiAIQYGIHEH4RUSOlhQFC2bC8e074OT5jxFDKF0EJIwdF2H0zb9j4CBvuIjInD8/ihcvhtxZUuhixHT49onjeOD8AaEcIqBEtWZYuW4jCkR+jL0nb5ge8JM43zuOhq074U3ERChc4h/RFeDrj+vXLsFsj+Hv9RHOLv9YQ8dLkgXPTi/CpLUnjSPfTqjQYfBn7/64uXo+5s6bjz3PY6Fjw1KQmLcgCIIgCEGBiBxB+EWEDh8NfUdPRuzH+zF6xiZlevEjBLy7hrnLN8NXzVUKhWhxEiNlyizImTGl6QE/ye55E/EmalZUL5UbUcI5wNf3I968cUa234rD++JqzNh8TX+UP25fPYknL2iU4Quvj/6ImbEEti+dgOUDGmD9qafqa31KgL83Prr7w8uXGRvA28sT3t6eyq3w3vWrqNOrJ8qULo2pkyahYJq46jGCIAiCIAg/i4gcQfhlhEKCDCWwad8GRHu6F41bt8XwkSMxcFgP7HwTA/3qVFaP4pycMUs3w8P5KkYOH4cbTp/MmImeAI5Pz2DA+BEYPWoUBncegIw1e6BWgS842Pl5YOeKWZixbjvuXzmEYaMn4akuNMjtY9uw9spdHN22HAevmGYvFahaEU93LMGkhStx9ZkrPjw8jh2n7iF+rhpYPL03xrcogXgZsmLJZU9kzhATe5ZMx/a7b7F45hh8SFQSlbJEROvqv2Pi/K3YvnABDrx4i6Wzx+G2sxeW64+5+OgV/pr+F66eO4AVm47j9P7F2HvhMe7fuIb2dUsgR47sSJ1cF25Zy+Pic5mvJAiCIAjCzyPuaiGKBi93d3j6+iNi5CiqR0IL8MPHD+7wQ1hEiRIBnu4f4BAhqn6fdepRe3ZXE76M5u+NFUuXolj1lkhkjNx5emEj9rqmR/PiGUwHvgFxV7MPNM0f3h4e0MKER4Tw32+5YRfol3Ifbw/4+IdBpEjhlR29IAiCvSHuar8Yfx9PXLlwGAsmTMDoUZPw18JNePbajdegQATgysE1WLZ4MYa3b4qa7cfoYucjNi6YiA0rFqJp5UoYv2YDejUtibXnfqDBXBAsGN/nJzF8/HycOH0UDx48wO1rJ7HjwC0UTpfIeIRgK+xbPR2d2rZGpx6DcebqbSydNRrt2rRGt34DcP4xe7z8cX7HSnTu0hmTFmzBx/+bI+yPa0f/Qr3C2dD3r/3GMcvl3tltGNi3B9q076gyt6P124gZ83H6+kP8348WhDg/vIg/a5dGrXbTEQQzfwVBEKweETlBjL+XC2b0b4NJq07h98bt0Lt7e+SN74b6dRvj6J3XxqN0ieP2DAPGLEaG8vUwYeFCdK9TCq5Xd2PUxqeo3qYL5i+ZjgrZC2LGhvNoWEA2foJtETZxfozqWQ8rhvRBzZr1MXDKVuSo3AJpExppHcFmKFG5IQIeHcYtn5jImyUdatWvghcntuBN7NzIkSya/ogwyF6sFBwRCeVrlkWk/3OfCIMsRRsiV/r4v1QkBBWp81RE+WzRsPnABdRr1Vm/BnRHxdSOaFC+JJYcuWU8KuiJmzInKhbJBDWHVxAEQRCRE9TsWzQEY7a+xuBB3ZAgTnjAwQFZfm+MHmVjoUGDNnjJvm0dt9dPcf/tO0TW74djDPxWIi8e3zwNt/CR1YDH2MkyIXN6ETeCbRI6dHhUbdwJG48dw4ULp7B63kjkTSvGA7ZI6AjR0LpNC9w9ehROPkD4aBnQvFlVXD5wAF6+NNPQ10Pnx0iQJQ/SRVVTaz9DGISjn7qVEClyVDgor8Aw+vruiKyl66NMhlDYsOnXZqIcw31tPLAgCIJ9ISInSPHBgjnzkKJwEST7JBxZtHRpOF3bgU2nnuCD813Mn7UEzk4vsHjWZGw/dRd3jm3Dok3H4XLvDMZPnIW7r97gxKYVaFG7PDacc1Jfw+PdIyyYNhmjh/RDh75j8fCtSTH5+b7DpjXzMGHiMPzZ+U+sP34D71/exdyB7dC0bV+M7FAP1TuNwQf1aEEQhOAkFFLmr4iEnudx9NJzdSRq3AR4cmgnrr3hGqbh0fVryFHoN3UfPF2we9VizBwzHC3+bIWDl03PIU/uX8eaFQvQqm5jzFx/xDj6D07Xj2Ha+GH4a90aLNm8Tx1zfXAFK2ZPx/B+7dG+/xQ4ufvi2IoJ+LNBXew6tAsd27bEhGkD8FuRshi9fB/8fb0wd3hr9J23A/QEfH3tNJbOnIpBvVuh28iFePfRA7vnj0CbFn9g//71aNm6De65GdGrL/D4znGcv+WBUr8VVJ97vHuKpUsmYvTYYWjRrBcOXXsCX4/3mDeuA8rXbaGv7d64fHgjGlUvjaHzD+PQkrloXre+/noPYcXicWjYoAlOP3LRv5KGZzdOYNzY/pgwfjbOXf/nd/X8+hGM6NYLwwb2Retu4/HigzduHVqDTnUqYO3BYxjSoQZKVyyJ30rVxrZzDwF3Jwzq+AdGL93zSWm1IAiCdSIiJ0h5gXtXvZEmWSrj83+IliQV4vkH4P6th4gSNw2at26A2AkTomX7rqiQPw3SFq6IhhVyI1bGQujdtQ3SxIuONJmS48bhE3j1wQcBfp6YPqg3AjL+jh79eiD6jS1YuPuKajbdOnssQqcpjy6d+6Jp4ZTo1aojHnpFQii3l/pF8RxKNOmLCT2b/DOwURAEIRiJECM5fs+TBBt368LE9x2uPA2LstkDMHf5IQT4euDi8wDkTmMy89i9aApexsqFP3v2Qd3s4fFH16F4bwxrih43MarUboqxY7tiWa862Hz5rekOhS/mTJqK7NXaokHZfHj38jn8PV5j+vTFyFatOXoPGgLPEzN0IXMUiTMmxZHdxxEQKycGDBqGli16I3/CMMiUKzvCODgiU47S+KNOGYR6/wAT/9qG3+q3Rv/BQ3F7dV/M3XkT8RLHwP4D5xAlRXEMGzQAiSL9fwbK680TzJk6DqOHDkWvDu0RkLkmSudNo9wPZwzuA79EZdCzR18MaJMdrX6vj1teEVGpciW8fnATXn4asv1WDZlj++LRSzckTh8bp46fwsfIKVGnYRfkiPESs1cegY/bM/ToOx4VG/ZE54714aD/bs2sHNMbYfLWRd+e7eFyeg22nX6ABOlT4MaxU3joERNdhszA5KFdEeD6AUmTJgAix0LmnAXQonoJhBLXAkEQbAAROUGKA8JF0ODt+5m2T18fMNbnEI7z47+FsIiTJjliO5qchDycr2P7YScUyZMWYcJGx4AVO9G7Rk5oeI+/pi7Fgc1L9Qv/OBy45YnqvxdEqLARkSxxfMRMlxX5c2dBikTxZdCiIAghQqiw4VG+egVc3LwBV66eQ0CKQmhWpzx2rFsJl/dPECNpdkRWVyM37NywH0f3rsbYMeNw9nUM1PstM3xMVW2IGiUawoUNjej644vlToLDx66a7lCERZLYfmj4e13M3nAWDRrU04XOdezedQJrFk7F+InzkKhAdWSMHQ6xEydFFMfwiB8nLuLES4BoESOhdrUC2LjuIHw8XODkGwUpoobF01unceToaSyaPQkTJi9C9vKNkTyagwpQxYgUBbFixEQC/f8Rwvz/pTR87KRo3bEHevfvj0UbdqNQwG7UaNoDz57dw7qLj5A1dRKEDhUGyfLUQq6Et7Fpz1X9ghzmXxflMGHCquHB8ZKlQuyYjkgYO5Y6FitmTLx3dsGVnXPwPHYeZEgYFWEcoyJL1kzGM4H207ejTOw3mDBmOV4+c4GrmyeixU+ESA5hkSxBIkSNGR8Zs5dCjdzhsHHvOfi8uo53EdMgphWVBQqCIHwNETlBSkJkL5AAV2/dRMAn6f63T+/B3dERuXJ9uz1uYPzcX+PFaxe4uZsElGPEKAgXJhQ07R1eO4VClSYd0bt3b/TtPwhjxg5C1sTSwG0PPLl2DPXL5EC93sth7AO/Gz+/O/g9d0rsuikzaoRfRSikyVceMb2uYeqig8idPSOKVq6BsDd2Y8rKC0hTIIfxOA0B/h+Rv1xT9Oqlr2cDBqNP67K6GDDuDkSo0GEQKUrg/HQoNB62GMsGV8aOSX1QquoAuAYEIEykSGjUuqdaH4eOGIXf88YxHv9vcparg2tbl+Du3ZOIkiqfOqbpz3eMHg+tO5ieP2z4cBTKGFnd983oIiVClASoVLEkXl47iPvOXvByfw8PH9OAXPbtJEmZGtFifv+a/fq5s/4b42/NBC1TTQRg8bAmmHHyLdr1aY6sXxi0Gyp0ONT8ozmOL52N3cduIVuOdNAvK4IgCDaBiJwgJRS69R8K96PrsfO6qY+GBPh5Y8H8FSjeaBgqZYuujvHiqfkH6GLIfHnixd04ZhwJTLi4aZHQ8RFWbdqvJt/7+77HgW0n4I9ESJ8lALPmL4O7l37RDPDHzeMHcdf5vfFMwZZJmrkwcqSMBh+/Hy+iDxs2LXaee4ByGUQYC7+OyHFToEKuuDh72xXpk8dB+KT5USlfFJy974bM0cw762go9nsOTGzbCbvOXMfjhzewcuUxRAinr65hw8Ljgxt89PXP/eUNXHoZEU2rmsSImTULZyNFhZbYcmA9or28AMRMj+QRndCz+2jcuP8I109tw4mL7+Hv5wtPPz989PynlyZU9LRoks8H3UadRoEspnU6QeociOh8Br2HzMb9x09w4chGXLrtBT/9+e7e3vDSb5+D9wfoa3yAv+m89HR3wY7dJ5G5UG3kzpYeFbNGx/wVu+HhGwCfDy/xyi8uKhZIAwfHSPqVwBsf3D3g6/kRzq/d8dHVBR/cPOHrpz/Wn0N99Y/ePvr38Eb2EqXx8sgm5dzpH+AHFxcXeH10g5vbA6xccAhVqlaFo78uqnz99Nfip57nowXg/Qd39bpI4kxFkCmGExYceIB0SWMZRwVBEKyfMIN1jP9bPX76RWvevHlInTo1ypQpYxwNXmImyYICybzx19I1iBIhETzev8buNXNwxC0l5k7ojmgOoeDr5YZ961dhxcr9SJY5O1ImTwo/lxdYOGMOTl16gbyFciNe7Bh4cekEJv+1EqFS5Ua5wvmRLnYARgyfgMNnTuHohSvIWa4SUsSOhswpk2LR0D5Yvusojh8/AteABCiSMzlWr5qLww98UaPcb4gZNZLxCoMXd3d3LFiwQA1pLVCggHHUOjl06BBu3LiB5s2bI0IEy+lwOrFtEZ455kTtMlntbgDg1q1b8ebNGzRq1AgOdCoULJfQjogaXkP8HGVRNBOdI8PqkuY9kv1WD1mT/COwM+QsjIiutzBy3DjsOuaEej3/QMpo0RA3aRLc2LUOxy5dx40rz9BGv3Sli/vvdc3p4UWcPHQce8+cR7GGbVFCFxTFCufCsa0rMXnmQjwNkwatWpTA2snjcealm6n3JXsORAkXRj0/VbyIeBwxHX7PmVJ97hApDkoVyIgtK/7CtNnL8TFBPjSskglLp0/HVSddcIUOp4uWLAgfaFgz5+TMXroF7z54wcXpJc6fO4mNO9bBL+lvGDe4C+JFi4J8RYrg+uFV2H30kr6mXEbFjv2RI14URIgUHaFdHmL7znNwjBge3q7P4OzpiJvHtuDeSw+8CwiNmP4vsXTNLrx1fYH0JVqiVp7ImDptDp56ucPP9T1ee4dBmnQFkDGVry4QDyBu3Ah49/IJXByi4N3lIzh47wVc371BhlxFEDdKWP3PEAFxHF3gGTc/yujXDUEQBGtm1qxZCBUqlOmm6RjHrR5PT0+1mS5btizGjx9vHA0Z3Jyf4+rFa3jvFwqJ02ZE5tSJEMbo5vRyc8Lxo+fhpT4D0ucuikiu93H+rskZJ0yEqChQMB+eXTmBR68/6kdCIW/x8ogT3g93rl7BXafXSJUjL9LGjWGk4jS8e3wT5649hEOcpCiQIyO0D89x5PRV+AUA0ROnRaFsadQjgxsnJycUKlQI7dq1Q9euXY2j1smgQYOwbp2+yTp2DDFimJqkQ4YAPLp6FBv3HtWVfULcODgV7zJ1x9rxDfX3gz8e3jmF/UfP4vHj54iWpjD+rFsKm6cNw7qDN5GuUFX07toMb65sx9iZm1GlfXdEf3ERa7fvRf3eU5E3WUS4vb6PHet34uGr5/CLnROdW9VCFF0/eHk4Yf/e3bhx+zFeevijQbMOyJksdogKq1atWuHmzZvYvXs3IkaMaBwVBOF7OL1zNSJkLIOsyUJyXRMEQfh5smTJokp31c04JgQxUeMmQiFdbFWoUAbZ0iT+W+CQ8FHjo2SFCvp9pluqeFEQP232vz8vV6IIooV3RKa8xYxjusDh/i10WKTNlhMV9K+b/m+BQ0IhZrKMKKM/tnheRhXDIELMpCj7u+nrhZTAEX4NH17ewNAxC1GmVjv82aI0fDz+KT15//gCFm66iOp126JX20bYNaYzZm6+hRp/dNaF9D1ETZUV0R2B5KlTI0OesiiVLQlihPPHxmUb4ezuB3+v1xjZewjC5a6I7r3b4sL0nthwyVkXU55Y89cshE9RAt269UbuMI/QsGl/uAf8aCeQIAghSoAfbp86iI1rV+LQc0ekTCQCRxAE20JEjiBYFQE4snIaXBMXQqYkMRAhVhJkzpD47/tObViEg8cvYu60iZi+aBsyFymBANc3cIgUF83rl8GujTuUy9/9K/dRsER+hAsTAWl/y4nYpi+AF9eP49yzUCiQMSkcwiXBwv0HUSVzLHx4fRfLFmzC3s3LMXbcRNz1iou8SSLirTkdKQiCdaEF4MaZQzh3/z3qVSuHyGKqJgiCjSEiRxCsCn88uf1UFyCfmwwfgKf3niFV3rLKCap3776YPOsv9G5RFmFCh0beqk0R6up6nLz5AtefuiFd8gTG8/7B7fVzOL11V03OJHrC5IgeIQy8PF7B1T06mrbtpr72oBHjsHjJRCSPKEuIYCH4+gJ79gAHD+qngmQY/5MwjqjWcQhG9G6DpLFkipogCLaHTfbkfPjwAWnTpjWOWic+Pj54+fIlEidOjDBhTE2x1oi3tzfOnj2L4cOHS09OkOCPNYMbodsOTxzatRIpYzhgTOsSOBOlJdaNb4DD87qh4ex7OLR3DVLHjAAt4D0O7r+MYmV+Q2h/b8zsWgtbP6ZEs4aNULtYLtVP4+dzC/liFcKQUw+RK+A4ipZqggFrjqNR0dT68z/i4I7LyJ8/FsoVKYGyg1ajb53CytL36p7tiFW6PBL+bVsb/EhPjqDgZWzBAqBjR2DRIqBmTf3qFpLdYoIgCEJIELgnx6ZEDpk9ezb27dunX/Os+8fixo23wESLFg1p0qRBnDhxED58eOUcYQ3Q9YrR/+zZsxtHrBNLMR5we3YJlSpUxquoaVAqfzY8Or8HdzyyYO6EYcifKQw6/l4dhz0jouRvBRDFH6jeoTfypTMVpD06tQKlms3AhgP7kTVBeP1IAJ5d2IFcBeuj+7pj6FwmFeb2/QPDN9xGlUpFES5SWDTtNAw54oXB3ukj8efQWchapgrSxIuAOClKonu7iiH6PhSRIyiuXgXKlQMqVgSmT+eiY9whCIIg2BM2LXJshT///BPLli2Dl5eXft2uCF9fX1y4cAHv379H7ty5Ub58efz+++8qYyWbu+DBctzVAHfn29i+9wQSZfoNUTxuwzVicuTNlh7hdcHh8/E1jm7fgye+jihSojRSJzDN/CD+Xh9w4dYT5MieCaYSfG/sX78aT9z84RgxKspVqoFYDl44euAA7rm4oUCZSkgf02zT64eHZ4/i2LVHiJEmJ8oVyIKwn5n0HpyIyBHw+jVQqxb0xRHYsQNImNC4QxAEQbA3RORYOBwiV7p0aUSPHl3N/qG4OXnypDp+5MgRNRvk9OnT+rX9tRI7a9euNZ4p/EosSeQIJkTk2DleXgDLYNevN90KFzbuEARBEOwRsZC2cJitefXqFTJmzIhJkyapY507d0a8ePHQsGFDrFy5EtOnT1dlQhRCgiAIdgfNBdh/s3QpMHQoULCgcYcgCIIgiLuaRfL27VuVpUmfPj1SpkyJKVOmqOzN/Pnz1f28b8SIEUiePDmGDRumjgmCINgVFy4AvXsD9esDTZvqVzO5nAmCIAj/EErz99fk4mBZsByqRIkSqkQtV65c8Pf3R5s2bbB582Zs375d9epQ+KRKlUqVT1l7Q7+1wHK1mTNnqmwajR+EkGfnzp2IEiWKlKvZI9u2mbI4s2cDUj4qCIIg6Py7J+fUKQ358hl3CZbAnDlzMHjwYJw6dQrJkiVTx5jdKVq0qLLHfvPmDVq2bImjR4/i4cOHauNdr149q3Fbs1Z27NihygZp723N0MTCyckJMWPGRKRIZlMB66VmzZoYPXo0woaVaYZ2BcvV/P3FSU0QBEH4m3+LnOrVNaxcCTg6GncLIU379u2VwDlw4ACiRo1qHIUSNVWrVkXx4sWxZMkSleFp164dVq1ahbZt22Lo0KH/erwgfI47d+6gcOHCShxTIAiCIAiCINgC/zYe2LsX+m7auEsIaZgluH37turFiRw5snHURKFChXDo0CHMnTtXleawTGfRokUYOXIkFi5ciGrVquH+/ftWPyNI+LUwk8OblHcJgiAIgmCrhEauXMCIEaYZA0KI4+LiokrQsmXLplRoYPg5FSrLjMzwWNeuXZXj2qNHj9RMncOHDyu7aUH4HN7e3uomznyC1cDAzcuXJstoQRAEQfgGQqNPH+DyZWDVKlONsxCisN/m+fPnSuR8KxQ6HAxKY4I4ceKgTp06KrPDGTuC8Cnv3r1T2b7AYlkQLJoTJ4BSpYD9+40DgiAIgvB1QqN4caBaNWD0aODFC+OwEFJcv35dlRGlSJHCOPJt0HQgc+bMWLNmjRI8nTp1Qv/+/eElkU/hE548eaIEjpSrCVbBvXuc+gow85gzp3FQEARBEL5OaOVMw1kDnp7A1KmSzQlhLl26pIZ+JkiQwDjyfcSPHx+zZs1C3759lc10s2bN1HBRQTBjFjm24Kwm2DjOzkDjxqyxpO0k9IXRuEMQBEEQvo6p6SN9emDIEIAWrNK0HmLQdODKlSvKdCDGT8x9iBAhAnr16oXFixdj27ZtqFy5Mp4+fWrcK9gz7NVitjBRokSIFi2acVQQLJCPH4FatUyZHM7DyZTJuEMQBEEQ/huTyOF8ldatgeHDgTBh1CEh+PmoX9SvXbuGPHny/PTMmzD637GWvkHYs2ePMjIoWbIkzp07J85rdo6bm5ty4GNpo8yVESwWd3egdm1Tv+i6dUD+/KbrlCAIgiB8I//Yd/EC8omblxC8ODs7K9OBHDlyGEd+DgqlAgUKYO/evWp+Dp3XOCFenNfsF5oO0IXve4wtBCFYocBhD86RI8Dq1UDRoiJwBEEQhO9GVI0FceHCBSVGUqdObRwJGtKnT48tW7Ygd+7caNy4MVasWKEGiQr2x82bN9WMnExS+iNYIixR69ED2LYNWLAAKFPGuEMQBEEQvg8RORYCy8jOnz+vLKCTJ09uHA06EiZMiCVLlijntbZt22L69OliMW1n8D124MABJEuW7Lvd+wQhWFi8GFixApg8GaheXTI4giAIwg/zeZHj62tq9LxwwTgg/GqYWaHIYa/Er7L2paPWzJkzleMa3deGDRumovqCfeDh4YETJ06oUjUZBCpYJAUKmK49jRpJf6ggCILwU3xe5LCUicNB27bldErjoPArodigfTRLyn4lUaJEwZgxY9C7d2/1ccCAAcrVTbB9nJyclHtfiRIlVL+WIFgc7EesXBlqtIEgCIIg/ASfFznhwgF9+gC3bpnKBqR/45dz9+5d5a4WHA3h4cOH1/+8fTBq1ChMmjQJ3bp1gzfnUAg2ze7du9VsnMKFCxtHBEEQBEEQbJPPixxGeQsWBDp2BKZNA06elPk5v5gzZ86oDSjL1YID2gd31P++7M1ZsGAB2rdvD3e6Ggk2CfuvaD6RNWvWIDe2EIQfgsEz6QsUBEEQfhFfNh6gnXSnTqZBod27AzI1/5fCGTY0B0iSJIlx5NfDWTotWrTAvHnzsHbtWv3P3UnNURFsD9qTHz58GDVq1FB/d0EIUd6+BRo0ADp0MA4IgiAIQtDyZZFDYsUCRo40la1NmiRla78QipxcuXIZnwUfoXUxW7duXcyZMwebNm1C165dRejYIGvWrFGGFmXLljWOCEII8eABUKcOdNVtclATBEEQhF/A10UOKVYMaNnSJHKOHjUOCkEJe3Fu374dIiKHUOjUqlVLla5t3LhRCR0pXbMd6NxH+/CiRYsiZcqUxlFBCGZY8nzxIlCjBvDkCbBuHVCqlHGnIAiCIAQt/y1yWNpCEwL2irRuDbx6ZdwhBBV0vKK7Wg46C4UQFDp16tTBjBkzsH79etWvQ8thwfphv9f169fRiLa8ghASBAQABw6YBA6vKRQ47PsUlz9BEAThF/HfIoewbG32bODdO6BLF9MFSwgyLl++rEQGm8JDEr6G2rVrY+rUqVi9erXq0RHXNetn1qxZSJQoEcqVK2ccEYRghNeLNWuAevWAVKlM/+daJwJHEARB+IV8m8ghtDbWN79wcjINCxWCjAsXLqgyIksY0Eih06BBAzU0dOnSpejRo4cIHSvm3r172LZtG1q3bv3LhswKwhdhH+f48UCLFqbS5xUroC92xp2CIAiC8Ov4dpFD2Cy6c6dpjo4QJGiapjI52bNnN46EPBQ6LG2aMGEC5s6diyFDhqhyOsG64Htr8eLF6v/NmjVTHwUh2GAGp1UroF8/4M8/ob8ZgThxjDsFQRAE4dfyfSJH3/yKwAlaXF1d8eDBgxDtx/kcFDp/6huTsWPHYvLkyerGWSuC9UDb6OXLlyvBGjt2bOOoIAQTzADTqXHuXGDCBCBCBOMOQRAEQfj1fJ/IEYKcO3fuqAZ/S8rkmOE8lTZt2qBz584YNmwYli1bppy6BOuATnmvX79Gq1atlGgVhGCFombtWqYRjQOCIAiCEHz8/M6HZUy0BhV+CEdHR7UJtbRMjhkHBwf069dPWUzTWnr37t2qDEqwbMxidMSIEUiTJo36vyAIgiAIgr0QSt+w/viO9flzoGNH6LtfsQO1cd69e6fKni5evIjt27dbrCgTBCEEcHYGPnwwuacJgiAIQgiRJUsWVb2ibsaxHyNSJOD9e1M5wsOHxkHBFokZMyZmz56NBAkSoH79+nj58qVxjyAIds2JE0DZsqaAlyAIgiBYCD8ncmh5PGuWqVyNgwZlSr5NkyRJEjU5n2YJTZo00f/c8vcWBLuFxgJTpgCVKrHuFhg92rhDEARBEEKenytXM3P8OFC+PFClCrBgARA2rHGHdaL5+2H9vBGYMGMZ3ONmQ4PSueH16g4uvAmNdl36o2zO5MYj7ZNDhw6pwZK0JZ4+fboyKLAX3F/exJxpMzBhwVrkq9IM+ZJFxrO7V+ARJxsG9OyMFLEjGY8UBBvm1StT5mbzZqBlS2DkSCBqVONOQRAEQQgZAperBY3I4ZfgFGtmc/r3N92s3M1J07wwuWlFrIlYHidnddU/D8C09qXQbZMXHt49gcQWMFfxw9OjWHs5JppXzGQcCR74llmgi9l27dphzJgx6NChg3oz2Qua9hjFY2ZCuRWX0btcSni9u4+aJQrCPXdX7JjTGxFDWuPr79WDe9chZqrSyJYqhnFQEIIAGs3s2AF07gz4+JgGRFetSitG4wGCIAiCEHIEXU+OGRoO1K4N9OoFfddrmmrNQXBWTCj9Z+LNTKhQoVGwaFGEcb6IO6+Ng4oAuLu9wdOnT/DyrQv8A2lGbw93PHv6VB13e+cCnwAfvHzyBE+fv4C3XwC8Pr7HU/3z1y7uMD8rwN8Xb5xf4MmzZ3j/0dM4rsHzoyue6sc+fPSGj58vXj25gtb1/sC5R4/w7NU79ajggr+Xxo0bo2XLlhg0aBD27dunhI+98K/3hv4xfMxEKJA1NZ7duQh3fd9nJiDAD29fm/6WLu4ef/+N+bv68O4NnujvjbcfPsD1/Qf9vaD/ffX3wgtn/W+pi5T3b5zw5MkzuHv9M4TV1/sjnj9/gmcvneDla7byDsC7N6/w/KUzvD3194b+/rm4dyladx2Dhy+e6V/f03icIPwkzN60bQvUrcurCHDwIFCjhggcQRAEwSIJuvA7N32cbF25ssltTd/46rs5404rRxdsb5/fxaLFW5G9QjvkTWYc1zeYty9tw5J1m3D0wA60alQJM3dcVPc43zuDiaOm48DBAxgztjOK56uNe15uOLZmAUrkL47zTz3h9uoJBv9ZGS0Hr9W/kv7V/D5i+8ZZ2HLgEDYunYTqDVrj6gtX+Hy4j159x+HgsWNYMWsa9ly8jxf6Bvbl69d4dvsSTl69q75ncEJrac7OyZUrl8ro3L0b/K/BEgjw8cbNk3uw/dRT1KrXDDGNDF9AgBd2b56FTfsOYcuK6ajZoDnOPnyj7ru4aykmzVyNA/s3okO72mjaZhJeOj/Bon7tUKTxACVyHp4/iMpFi2HVifvqOZ6u9zBn3jwcOX0Yk4e3Q4t+0+DqE4Abh9Zg2Ly1OHXyKMb0GoUnfh64+/gpPro44/K5U7jzPHgFsGCjXL4MFCsGbN1qCmQxc582rXGnIAiCIFgeQVtjFD68qRGV9sItWgBnzxp3WC/PLx7AgB4dULJUAySo3BMblwxDZOM+v/dPMWnSasRNkAqJkmdAiTSxMaRDfzz78A7DBg9A2koN0LhxEwyoVxkPX7xBGIcYKNe4OhIYFURxU2ZF0TwZTZ/oPDu7GUv3v0GqBImQPV8xhL+/D6Omb8Pzsztw/pWGCpWqol69WkgZOypy5C+C1HEiImOhcqhVKp/xFYKXGDFiYNq0aWomS48ePfCBFrJ2xKE1s9CxaV3U77oQXWetw4A/SsNcqeZybTdmbX6K1AkTIUueIojx8jRGTl4P14fH0XTcVnTq1Q5Nm3ZE7awJ8MzVC7FTZEHlqvkQlkHx0GGRo3AJpEoUy/TFdFaPH4b3kVIiYayk+K1wURyfNxqbTz7AgY2LESVeJlSoUg2N6/yOyOGioUTxIogWLTrKVK6JAukTGV9BEH6Cx4+BTJmA3btNvThc6wVBEATBggn6Roq4cYF584CcOYFLl4yD1kuiHCXQp+ufiB/xHa691Dejkf+5uL98eBHXr79HhAjhVGYjX52e2LZyJPD6Bi6cd0KapAnV4xwcwoHlbl/HHye2bkeAYzT1tRzCx0L/OevQr9lvSJCxCByuLEWJUjWx4thdJImv/44thAwZMmDUqFE4cOAAZs6c+fcQSnugWO3WaNekEt68uAbX0FEQ0eGfsp2T27bAzyG66W8ZLga6Tl6OoW3K4fKezYgQPx2iOZge5+D4LZvFN9i94RyiRImovl6sZHmwYvtmlMgUD/mKlcbqIY1QrV4H3A0bC/GNZwhCkMIM/bp1QLZsxgFBEARBsGyCXuSQpElNfTlNmhgHrJuIibJg+pSBODWrO+bvvmMcJRpcPrggUZqsKFiwoLplSxUH/qG88d7VG24eHsbjvg0NvnB290Me42vxljBGKDjGy46NBw6ifdXUmNy1ITqPXoVArR8hCntTqlevjhYtWmDkyJE4efKkHfXnhEb6Ug0wulUhDO/QARef/ZPJ0hAAJ1ePf/0tk8QOCy8vb7x662I86lvR9H9u8HKI//fXypcjEyKF90eeKu2xY+tqZI3+EA3KlcSyI4+M5wiCIAiCINgvv0bkEA4KDRfO+MR68fPwgp/+MXXB+hjfszp6dWqO/Y9d1X3xUmZH6ogvMGjkJDx38Qa8XLF82V5Ei54aiWO9x6w5K+Dq7Yfnzg/h62fKcIQKHQ5+Xu9x5/YDuD67h8t3H8Db20MXBqGRr0J53Nk4FTPWHIaX/k3f3TmBHUde4N2lHTjhGhste0zAijl98eLqHV3kOCBchFBwfeoCp9t3oH/3EIPZhYEDByJdunT4448/1Bwde8DL0wuhwoRDnU5jUDr5GzTvOxbPP5qMAvJUrIAXO+dgwtK98NAPuT44i20HHiFr3hxwPrEZc3Zdhb+/F56+eq4eTxz18+Xl7Rt49f4j7l05j+fv3uiiiF8vFkpXzIMpAzri1O1XgL8vzu3fhdtPvLF352ZESpEXo2ZuxIC62XDj/kuE1l9TWB9PvHd+h6cPnql+L0H4T+iWNmmSqRzNyo1jBEEQBOHXiRwrhnNy1s0ejWXHb+LZ0fUYP38N3HzDolqXUWiezBO1ihdB15FT8S5McsxatBSRz61ClhTxkL1iS+QqVwHRoyfFlJmTcXPNIGTNWQKXn4dG2DCmX3WkGMnQukF5dG9QFl0WnkGqlGnx5uFB7Dl6Byny18eK0R2wpHMNxE+cFN3nnUKlstkQyi80jq2bhpETR2PDniv4s0crREJ4lKhSDSuGN8W8s0/hqL56yBEzZkzMmzcPTk5O+h6po75Hss1NEufkjO8zGpd8NWydNRLrD15E2CjxMXz8RIQ7PA+lytXAlLX7EDdTVWyY0R/r+9RHwsSJ0W7KXvxeNhfi52uEBUOrYGDNIiherwcCHP7pu0lXogGqxHuJTLmLYP+LyEidMhqOrF+LO04f0HTgPHTLGw3V8qRFgkwFcMEtBvKmjwvN+QXmzx+LMRNG4XHoNGhRJR+ixk2JQjni4Y9mjXHHIwz+8QgUhM/AEtOTJ4EiRYC+fU0BKkEQBEGwcoJmTs63wE3vhQscmw/Ei2cctA/crm9DinyDcMLlDNIF6tuwRSh06LY2a9YsNG/eXJWzCV9m+9S2GLwrOg7sGIkoxjFBCBa4Jt+794/tf9asJuOY/PmNBwiCIAiCdRH0c3K+BZZCdOgAVKkC3L5tHLQPfH28laWwtw8L32wb9uawR4fla/ZqK/3taPDx9oafnwf8/aU8SAgmGNd6+RIYPhwoVAg4fBiYMAE4dEgEjiAIgmAzBJ/IYX8O671dXIB69YArV4w7bBz3V1i44SAy54iKpXPWw8s4bKtQOY8dO1ZlcDgo1FvfxAuf5829M9h58TVihLmPbQcuw3586YQQgzbvCxYAJUsC06YBzZubxA2HfEaIYDxIEARBEKyf4CtXI/xWFy8CTZuaSiUWLQJy5TINErUjaLPs5uam7ykiILwNzpvgW2rJkiWqbG3+/PmoywnpQpDi4eEBLy8vRI0aFWHDmqfzCMJ/wADT5s1A1apAjx4mS+jQ0popCIIg2AYhU65GKGY4P2flSlNmh5vfU6dM4seOePLkCYoWLYojR44YR2wLZnFq1aqFMmXKYMiQIXj27JlxjxAUcOhqPX2z2rVrV/j52X4JpBCElC4NbNwILFxoGtosAkcQBEGwUULmCsfJ2atXA3HiANWrAydOGHfYB2/evMGtW7dUFN5WiRgxIoYOHQoXFxdVviab8aCBWbLNmzdj//79qFOnjk1mAoVfCMvTypa1CXt/QRAEQfgaIRfGS50a2LABSJUKqFQJ2LrVbjI6T58+VQInWrRoxhHbJJMuZvv27YtFixaprFVwVkbaKsziUDyWK1cOJdlXIQiB4Tl29arJCvr1a+OgIAiCINgfIVurkCABsH07UKwYULu2qYzNDnj+/LkSOLacySEsW6PbWv78+dGrVy+1QRd+HIrE6dOn63vX1+jfvz8cHUN6OpJgMdC98swZoGZNU5/jpk3Ax4/GnYIgCIJgf4R8QTazGatWAYMHc3S+cdC2ocihwLF1kUMiRYqk7KTv3LmDFStWSDbnJ3B2dsb48ePRqFEjZM+e3Tgq2DUeHsC+fSZx89tvJnt+uqax1zF5cuNBgiAIgmB/BK+7mqA2+Y0bN1YlawcOHFDuD7YO3eRat26NXbt24dKlS4gdO7Zxj/A9dO7cGatXr8bZs2eROHFi46hglzArqq8fmD4dOHnS1OfYpg1QowYQRcbKCoIgCPZJyLmrCfDx8VHlRtyk2oPAIWHChEHPnj3VzBxmIoTv5+bNm6q3qUOHDiJw7Bmz9X6pUiY7aBp6cO7N3r0ma34ROIIgCIKgsOxdNgdJcmgoL+w2gq+vL1xdXRErVizjiH2QNm1atGnTBrNnz8ZtltQI3wyzfyNHjkTkyJGVyBHsGH39wLJlQKJEpr6bbdtM/Yx2UPoqCIIgCN+DZYucc+dMk7m7dwfc3IyD1g2tlNmAHyNGDOOI/cC5LuxDGjRokK5bbUe4/mqOHj2q72c3qd6mKBKpt29o/UxXSvYxlinDpjfjDkEQBEEQAmPZIidfPqB3b2DWLKB8eeDWLeMO68UscqJHj24csR/4Mw8YMABbt27FCTubjfSjsMRv3LhxSJIkCepyeK5g+7i4mNa8iRONA5/ArI046wmCIAjCV7FskRM2LMP/pnrzN2+AIkVMpRos2bBSzCInZsyYxhH7okGDBmrDzo27DAj9b/bq7/19+/ap2TiSxbFR6P3C0lwaCLRsaXJF69YNePjQeIAgCIIgCN+L5Xe+hwoFFC4MHDwIlCgBtGoFdOpkGnRnhcZw3Ni7u7vbZSaHRIgQQZkQ0Fnu2LFjxlHhc7i5uWHUqFHIly8fypYtq+YOCTYERf6zZ8Dcuaa1rXhx4PBhoH17Uy8iraAFQRAEQfghLF/kmOHg0MWLgREjgDVrgN9/Z7MC/YmNB1gHHz9+VI3knB9jj3CjXr16daRIkQJTp05VbnPC/8P3yIYNG5TlNkWhZHFsCHd3k2FAkyYA5x317Qsws7t0qakPkWtc6tTGgwVBEARB+BGsR+SQ8OE5LATYuNH0/woVTENEraiJnT0WDg4O+svXX7+dEi1aNHTs2FGVYUlvzudxcXHBlClTULp0aRRnhF+wHWgBzf6qu3dNZWmHDpnWtFq1TMORBUEQBEH4aaxL5BCW7LA3Z+tWoEcP4MYNqxI5LFXjfJyw7DeyU5jNqVq1KpImTYrp06fDy8vLuEcgzOJs3rwZ9+/fV2KQJX6CDVGzpikLzWGeffpwcpmp/1AQBEEQhCDD+kSOGVow9+8PrFhhVRsEZnIocMLRCtaO4ZygZs2aYffu3bh+/bpxVCA0ppg0aRJKlCiBwuxHE6wHCnb21fTqBVSpArx7Z9wRiPjxgRw5gMiRjQOCIAiCIAQ11itySGj95VuZWPD09ESYMGHsOpNDmM2pXbs2YseOjaVLl8rcHANzL86DBw9UFsdRrIItH/aV7d8PcFBr5sxAuXLAwoVAvHhWtz4JgiAIgq1g3SLnS5w6BTRrBjBDYGGbZxoPUODI5hVInDgxqlWrhtWrV8PZ2dk4at/QiIGOauzD+e2334yjgkVBV8cPH4A9e0xuj8mSmeZ4sa+mVClg0yaT/fPs2TKsUxAEQRBCCNsUOQ4OwJkzQN68ppr3588txm5aZsP8A7M5nJvD7BazF8xi2DsrVqzAkydP0KNHD5XxEyyQLVtM7mcsR2MGp04dYNcu4P59k7ApW9YkbphpFgRBEAQhRLDNq3CuXKbBehQ4tGUtVMi0+Xj/3niAYClkz54dRYsWxYIFC1S/kj3j4eGhhqSWLFlSenFCGmaA2V/zOeGdMCHQrp1J2DBbPHmyacaNlKYJgiAIgsVgu6HGqFGBfv1M9qxlyphmUZhLSj5+NB4U/MhAx3/DbEXz5s1x9epVnD592jhqn6xdu1Y5qvXRxTkd+IRghuvCtWsmi+emTYH69T9vHJAnDzBwIMByQju2ghcEQRAES8a2d1IUFGnTAjNnmurk6cjWqJFpvg4/D4HMQeTIkVVZlpRm/UMZXYSm1f9Oczn53U5hL87s2bNVVqtgwYLGUeGXwkHCT56YBnN27QoUK2ayp+/SxdRTQzETMaLxYEEQBEEQrAn7CBfTyYxR1zVrGC4H2PRfrx6wfLnxgOCDEXpfX1+7L80KTER9I1mrVi19r7kN7z4XObcDDh48iEuXLun76y6S7fuVMLhw5w4wcqSpd4aCknNrdu82zauZMcPUz8fPWe4qM4oEQRAEwSqxr5oYNgP//juweTOwc6dpkxNCSCbn39BOmsJvC5u67Qx/f3/MmTMHGTNmRDFmE4RfB3ttxo0Dxo83CZju3U2i5vhxYP58U4lamjSSwREEQRAEK8c+C/+5ueFmMlEi40AguAliGcsvEiGcXs9NLcuThH9Ily4d8uXLh2XLltmdAGQG58CBA2jTpo16fwg/AN8zPG9ZZsYBwZxZM22acWcg2OvE40+fmvrzOnUCsmYFokc33ScIX4PvM/ZuvX1rHBAEQRAsFbmqfwqjuUmTAkOHmjZMQWz5HDNmTJWxcHd3N44IhCVaTZo0wZkzZ3D79m3jqO3DIaiLFi1CrFixULVqVSlV+xa40WS5JzeadFGcOBGoVct03rIH788/Wf9n6sn7FB6jWQCzuixjld+38D34+pqyfQ0bGgcEQRAES0VEzqewnI3zL2bNAnLkAJo3B44eha5KgiS7EyNGDDUrh3bBwr8xb/I3MsJuJzzUhTR/3qZNmyqhI/wHFDd0SixXzlRWVrKkSeRQ8OgiGevWAVevmlzS2rc3niQIQQSvBTt2ANWrGwcEQRAES0VEzqckSWJqPqadcf/+wJUrpg0VbzzOgX8saftBHB0dlcOaq6urcUQwEz16dJQvXx6bNm1S5gy2Dsvy1umbcoreevXqKYFn93z4YMqgXrzIwUHGwUDwfcGNZty4wKBBpt66S5eAAwdMZgIMUCRLZjxYEIIQvveGD+dwL6BBA+OgIAiCYKmIyPkc3Gxyo8SmZJa9LFkCxIlj2lRxSCNtqDl/5wcyO5wLQ5Hj4uJiHBHM0Hmuir5JZbnadQ5ZtHHevHmjv7WWoFq1akiRIoVx1E7guUNBc/Omaajm6NGmMiAO1aTjGc+zc+eMBwdCP3dw7BiwerWpn4auibFjS9mZ8OvZvt303uN1QYwpBEEQLB4ROf8FZ+vUqGGyn+YFjjM02DPCqPEPZBscHBwQLVo0vH//3jgiBIZzYih2aKls6+zduxcvXrxQpWoUv3YBMzQcpMmMS758/IOb/j97NvDqlenYsGGmIAL/LwiWAM0GuObnzw9Uq2YcFARBECyZUJp4GX8f5gg0DQlixjQOfjsf9Ytl2bJlkTVrVszkkFLhX9B1rnr16qpnaffu3UoU2iI0n6hZsyY8PT2xfft2hAsXzrjHiqFjIIdrPngAxI9vmjvzaYaF9s0092A/TebMpr43Po7ZmKhRof8iJCsjWB4U4XTs27vX5MwpCIIgWCRZ9D0Fg+W8icgJaurWBS5fZhe9achgtmwmFycD2kfXqVNHbeJ3sIFV+Bd8O86aNQuDBg3CkSNHkCFDBuMe2+L+/fv6WyMbJk2ahD/++MM4aiXQqvnRI1NGk+VmbPLn/9mvxog3xQ6zn8uWsT7TeJIBs580D6CYsVEBK9gYL1+aMo7sxVm16v/f04IgCILFEFjkSLlaUNO5M5AnD7BgAVCggMnStmNHYOtW4N07hAkIQNKkSfHq1StxWPsMbL4vVaoUvLy8cIzlgTYIhdzq1auV0UI5GlpYCjTUoEDh7XOxj7t3gZw5TfbLFJ8U8bRap6hnD1u7dsBff5l6aRYuZJOV8cRAUNiwr0YEjmAN8Dyg4cybN6Zytc+9pwVBEASLRDI5vwqWtHGTvm2byfnp+XPTJrJgQez29cWcp08x8+hRxE+QwHiCYIYlfb///jvixo2rxICt9auwVC137ty6XsiJxYsXG0eDCWZhdAEJT0/TR74vmYGhgGF2hjdmWSjSEyY0nmTAnhlaq3NwZurUQMqUAA0TZICpYKvcumUyt+DsJRrPiMgRBEGwaKRcLbhheQ7dwmh9u28ffM+fx2V9kxlLF0EpMmUyHiQEpm/fvlizZo3+KzuKBDYmBPkzMVtFq2yKuSCF5WCfy5JQ3EyZYhLeFCsswXFyMkWqo0Qx9cOwx4yihSWWnDHDY4Jgz1D8T5hgyljStlwQBEGwaETkhCQBAbh58CCqlC+PxYcOoQBL2gLDTSidxdiQzVI3zu2xw0j5gQMHUKFCBezcuRPFbKzRt0WLFjh+/DguXLiAiN9rRcvsC535zDcKFjb7m28sq+GwTA7JDAyNMtg4zRk05gwMP8aLZ7JH5+0HjDQEQRAEQRAsBRE5IcyjR4+QP39+jBo1Cs2aNTOOGixfbooasmyIZUEsGWK2R/+jIWtWIHly083GhQ+tlYsUKaKGZA7nAD4bgdbhqVKlQtu2bTGMVsmBeffO1K/i6GgcCMT69abeAAobN7d/bvpJjFixTO5k/Jg4MdCtm+n9IgiCIAiCYEeIyAlhXF1dUaJECfz222+YOHGicdSAZUXc7OqbfJw5Y2riZl043avevgWiRTNF3Nn4TTteZntskICAANSuXRuvX79W2ZzvznhYEvybPnumsiwntm7FPF209f3jD6RhAz/LxtgX4+xsciarXh2YNMl4YiDWrTMJHZbuUcgww5c0qUncUPDy98OPtmBFLQiCIAiC8AOIyAlh+CvnBv7Dhw/Yqm96vzoLhn8ec6M4N8RXrwIXLphKk/r1+/+IPR3bONOBcBYJS5ISJTJlhayMGTNm6D9iP1y7dk3f1+sbe0uCooSikzf2tvBzzoapVOn/e2I40Z/T/H184K//LUProicU6/tZKsaPfB5vFDAsM6NV7afwfcAbMzeCIAiCIAjC/yEixwIYMmQIVq5cqZrQ47Af4nswb3g5NPHTwYnsyWje3NTXwz4M85+XkX5zBoCih2VwuXMDFSr8/9fgc+gEx+MhuKk+c+aMynjx91SJ4uFnMP9MvJl/f+b/U6DwZ+Xv5tOfl9mVHj1MDcgsD+Nj2QfD55LAvztO6N+06f8FJZ937BievH+Paq1aofXIkWhFtybz75cfzTdBEEIOntdjxgBVqgAZMxoHBUEQBGtBRI4FsHHjRjRs2BAXL15E2l9RcsZZJ+zrYcaH5VAsl3r61PSRN27UKXxYCvdp5oGlcQMGmIaYshyKJXK8sRyKn9PSmYKJm3L2BzEj8SkUWMw+fQt8HZ+xiXZxckKZggVRURdiAwcNQihuQPh1CTNWFHRm6Aj2uT6lefNM2S+KFRcX03P4/9evTeLD1dX0c7IEcPfu/8+i8P4WLUxiiGKUfS/8yKxLjBimG7MwPP4fJXV//fWX6sXhIFCLy0wJgmAaYMvznXPNypQxDgqCIAjWgogcC+DSpUsoWrQolixZgqpVqxpHgxHz0Ec2un/KgwdAz56mJnf2BlFcsGTO/JFvGfMgU2aC1qwx/T8wK1aYIqL/BcVNp05AkybGgUDoQuvduHF8kyK6LiZC0Yqbr4kwAxI+/D//5+aE0ddPadTIVN5HIUYRREFCMcIyMQo3Zl0oVChSOMT1Fw2pZI8R/87sx9q3b9/XSxTtDE9dDHMWkuMnhgucl8T7YlNYC8Kvhmsd3S65DnBN47oiCIIgWBUiciyAd+/eKfew0qVLY9KkSeCkf4uFs1eY0WADPT9S7NAcgVA0sO/nU27eNAkPPve/oFDiwL1POXYMp+fO1b/MMgwdMgQxWGJnLu2jSKBIIczEMAPzOVcyC+Hx48fKUa+nLh47d+5s2X/vYISDUfv06aMWpaZNm6rfC5ekgwcPKpttH12ID9DF7qcCSBCCFGaI27UD1q41BUWYoRYEQRCsDhE5FgB/7Q0aNFB20nv37kUkOm0J/8fp06dRsmTJoOnLCUFWr16N5s2b/7ryRCvDyclJ2WmzH40iljcOR02UKBHevHmDBQsWoFu3bnj69KnK5ET+XMZREIKKHTuAOnUA2tV37Cj9cYIgCFZKYJEj+fgQghFrWkhfuXIFLuwVET5LpkyZECtWLJw8edI4Yp3s3r0bGTJkQEJmo+wcZm8GDx6sMlrRokVDmzZtkDlzZsyZMwf+/v6qdG39+vVo3749xowZo2737t0zni0IQQz789iDmCuXqR9HBI4gCIJNIJmcEOTs2bMqSxFifTlWQuXKlVXU/8iRI8YR64IilqWJ/FtPnjzZ7kvV/Pz88OrVK1SvXl1la2infv36ddSsWRMbNmxA+vTplevgqVOnVMaTgQCWrTHbE87O5gBR9Dk7O8PX11fNjOLnhL1d7u7u6v9fgu8zBgjMv7P48eMrARkvXjyEZYmnYCq97d8fmDnTZDySN6+IHEEQBCtGytUsBM7JyZUrF8qXL6+GgvIPIvw/o0aNwogRI1QZU3iz2YAVwZK7YsWKqewE/9aCqVyT2a3evXur/pvo0aMrW3U6z7FUjefC8+fPlQsdBe60adNU74619ubw5w1843uZpXgvX75UpXv8Wfn/Fy9eKAHDnj2KGy8vL2VaQcwfifnr/BcUOmZRbV5f+JG/R4oeZtJ4Y4YxSZIkqlyQv3Pe+P+oUaP+/TUCfy2bgL8/Zoh5TrZvT1//z7o8CoIgCNaDiBwLolmzZmoTzF4Ne4tSfyvcBJcrVw6HDx9WzfvWxtixY5W5BOf+cCNpL5hLzwLD5YabdR5ndoY26jly5FBi5+3bt6qEk4KG85GY1aEQyp07NypWrIgEtO22cPjzsRyPN4qVW7duqVI73h4+fKhEHPvwPDw8lMMeMyr8GCFCBCUsmGVhnxJ79JImTaqOsyeJGZmIhkU5j/HzbxEcFIgMphC+JmaD+LqYXaSIYjaIHym0KLroaMeskfkWI0YMJE+eHKlTp0bKlCn//pgmTRpEiRJFvRb+DFYpfmghT9MTOkXu2WNyWBQEQRCsGhE5FgSbrWvVqqU2wNzsCf8PN2TcaA0aNAhdu3Y1jloH3ChWqVJFbfi3bt1qFy5hFDHcWNNsgaVozNIQbqY5H+rcuXPo1auX2jDTSp1Ch1mudOnSYenSpZgyZQrWrVunNtjMeKRKlUo939Iw/5zMulC8sKzu5s2bStDwc2ZmKExomsCMSLJkyZQ4SJEihfo/MykUNHHjxv37dxSS8FJAUcRSQrPwoSB78ODB3yKN4ozCiIKJIox/MxppsKcqa9asKvvDn8UsyCwaWuVT5EydCpQubRwUBEEQrBkRORYEN/DcILRs2VKV6wifp0CBAqqkhptha4Ib3cKFC6uNvD38fZ88eYIdO3ao7AQtoClkmKXh5pgZLdpEcyjq+fPnlejjIsQyNDc3N5XBoWgw9+owe2dJ84T4M7CcjJt+Zl75M1DM3LlzRwkeihWKFgoZGmZkzJjx7xIw3sef1ZqhYKfw4e+AlujXrl1Two7ih6KIYi9mzJjq5+dFJmfOnMiePbs6b/l7sbg+IJb/sa9JF6CCIAiCbSAix8Jo0qSJ2jBxw2DtG6FfBTe9jO7fvXvXqrIhNJcoVKgQtm3bhjI2PkGdAof9NK1bt1alZVxaaCjAiD8zBHRL4/2bN2/G9OnTlbhhpoeigb1KfF61atVUJsASMht8zdzA82egYLtw4YLKbPA4hQsFDDfxLKdjRoPlZtzM29ugV7P4Y1/R5cuX1VrG3xnfDxSt/F0x20PzjXz58qnfldkEQRAEQRCCEhE5FgY3fXXq1FFuUtw0Cf8P+zMaNWqkyvoYJbcWuJmnacKxY8cstuwqKOAywqGd7KnhgNtPYbkeez64+WXpFjfG3bt3x6xZs1T5Fkvb2HfDzE9ICX02+bPcjO8x9n8xW8NMHHuH6PjGhbNgwYIqQ8GNe2DnMuHfUNwwu8OMD+3fT5w4oYI47AmiwOHfuWjRoqrHjmseM12CIAiC8LOIyLEwWOPOnpMOHTqovhPh/2GkmBkBZgIaN25sHLVsuLFnlo6ZCpon2PKGmA3rFSpUwIQJE5Rj4JegmGfZGqlRo4bq4+B8HDauh0Q5E7MNtKs+cOCAytZQ1FDsZMuWTWXgWCaZJ08eVYbFRvuQEmDWDkvdWM7G3h7+nnmjmOQxGivwPcPyRLoQMtMjWR5BEAThRxCRY4FwGj6j/Sz3oGOR8G8oGLj5YZaA0X9rgC5W7McpXrw4prK52YZhCRcd0Tjg83MilJF90qlTJ1XCx76NRYsWqdLD4LQF5/uI5xj7hnhjXwkFGrNJfP28sayKooavy6Ysky0Iih5PT0/lPrd//37Vn0VDCpb6MeBTtmxZ/P777+pvEWTvD/bg6H9z0KFRF1aCIAiC7SEixwIx925w4CH7FIR/w7cphaC54dsaIr0s1WGZ07x585TxgC3DxnuWEz579kz1HzHrERhuZpmpYanSnj17lPgLjhIlvi6KGJaCrl27Frt27VLN83x9fA3MHvBGtzMKGhE1wY/5EkQnvX379inxycwnP6fooeBh1o/DdCk+fzjjt3EjUL++6aP+NxcEQRBsDxE5Fggjm6xRZ8M1o5oW50RkAcydOxd9+/ZVNf7MBFg63FDTHpylUCx5sjXYV8Oso1kYcGNK4wC6qdEowtyAT5FBVzy6ptFO+VfDbA1n7tAogJbV3DSzLIpChiV13CyzDI1DMAXLhBbVDGbwHNq+fbsyHOEFi5m2ypUrq78hZwp9swmJLmxRqhSQODGwZQv0Jxp3CIIgCLaEiBwLhH+GhQsXokuXLti7dy/y5s1r3COYYWkRm77pssaNjiXDv+eoUaOUMGPvga01VrO0aOfOnejXr59aSAizJpMnT1Y/N7M6devWVU37jM7TWY5N+78Kfm82uvN10aSCgoufs8Gdzm288ZwSowDrw8/PT5UY8n3EANCNGzfUcZayVa1aVZWD0tnui4Eh/fno0wf6Agvs3w9ky2bcIQiCINgaInIsFG7K2IDLiDc3i1I68284S4VvXpZ+0bHMkmE2oX79+qo0ihtusxCwZvgzsYSINsl8r9JkgCYCgd+nfAydySg0WK7HjEmDBg1UFiWoMQsbikg6FB45ckQ5uNF9z9zTwQG7wZE9EoIHimaWPvI9xr85y1eZzWEWvGbNmqoEkSWR/1o7Dx2CroaAXr2Anj0BMTUQBEGwWUTkWCjctNFWl6U9h/QLM5uhhX9gSR/7ldjQz2yXJffl0KGLWSdmMChYrR26jk2cOFFtMilsmBFh6eDw4cODXcCxYZ2bXPbY8Dyh8x4Hb9KUghk+DtelTbVg2/C9yDI2ZhS3bNmiytsocFjSRsHDzGEUXXSjUiUurqYytVixjGcLgm3AfQPLcenSyhJimsAw2ESzF5Z98iOHjhNu9xgY4vGvwfWd1QcMFtAqP1KkSOp6yxJflijzI/vj+NGa5tYJ9oGIHAuGczoYlWzbti0GDx4s2ZxA8K06ZswYzJ49W1nQclaJpUIhxg3XlClT0KpVK+Oo9cFSIRonsFyI/SyjR49GhgwZVCaNjnFDhw4NNrF5584dFQBYvnw57t+/r0rROFunSpUq6jVR2Mj5Yp+w74sZHmYQmeGhVXWqFCkwTb8VO3ZMmQ2ELlnSeLQgWAcUI69evVIVAeYbbe9p8EKxwt5DihoGfij6GQjkcyh8+DnFDjPv5jWaa2TEiBHV/78Gn0thxGsuvzavZ1xbKX7Ya8mPdD3kjV+Tgog9chwCTUt4CiN+zv+zlJT/D+5gmGC/iMixYLgo0YaXF2paSnM2jPAPLElixJ4OXRw8aamwf4ilh+whYDbHGuFGsU+fPso0gQ5kXDgYMaTQZEM4S9BoA80L2q+Cm1c2ni9evFgJW4ou9mFw/hAHSbIUTYSNYIaXM0a02Zu1Rxfh3TZtwkr9QrexSBE0btpUlQJLlk+wNJht4Xp7+/ZtFcwxf6SgoWiheKHwoFhhcI83iheKC5oV8SMFBv/P9ZhCxCws+H/zGsnnf4vY4HnEtZZQMJn/T7HDgb5m4cX/s4SZ2XTz/80f+X15Y6aHbpYpU6ZUA7H5kQEqVqrw8195/RDsExE5Fg4bazkUr02bNpLN+QSWTXFzS/eujh07GkctD0aUaXlNJzhmGawFimyWALGJm/0OLEdjT01P9jIY8KJHxzhmG1esWIHcuXMb9wQNvJjzHKARB0vSKKy4aDVr1kyVK7JM4lsu1IIdo2/KtCpV4K+/lzfo68QM/X1Em35GsWlH3aJFC2TPnv1fG0BB+FVwXaVQ4FpG8cKsI29c5/g5r2uE70UGbjgTjuMH6CLKYFKSJElUwJPChY9Rmzf9o/kWknALGfjG6wM/Pn/+XAkhijdm3vmRNw7HZvDK/FgGHSh2KHy4zrOPkucmS+F4HQquSgHBdhCRY+HwT8KhiXQRO336tFrgBBNcFBkl4uLHza6lwrIulnPxAmYtje+MGFJY8ELE9x5FNmc3NW3aVM2ZYelBYK5fv46rV68qF7WfhZsAXhCZ+eKsKH4/ljnQkpoiixc+udgJ34z+HtbVN33noStjdejKlStYuXIlVq1apSLPWbNmRcuWLVW5IyPhIpyFoIBrGTfxzHowo89gEc1R+P5jZsZc5sXrF4WMWcxwo8+P9nC9p6h7+PChulH08CNFHz8yE8ueVmZ6uFml4OGN/2emiv1BDE4IwpcQkWMFMMJDa9TWrVurbI5cgK0LZh14gWP02FqgYKHA4QKxevVqZdFLdzRGvdlfROEW+H1IsclyNZpl/CgUVvy+/DrM2nCDkC9fPjRu3Fg5pPGiJgjfTUAA9N0l9N3R/7mpsTRo9+7dqgSSJcEMQtCogO85GliIzbjwrXD7REHDtZBukiyT5I29tQxwMTDD4BBLtFi+zKx38uTJlZBheZnwb3hu8vfGcj2Kw0uXLqlrEvuO+Hvm747nKG+s6KDJDLNbzNCGdEZLsBxE5FgB/LOwJGvJkiVWM/xS+AeWGyZMmFCVc1kqLJ/ge4uOPBQU7HdasGCBKgnj6+eFg+5lrP+m4Ob7keKNwoMXnnHjxqFUqVJq4On3QjtwWmv/9ddf6iN/V/y+derUURcwEfXCr4bvf0bXmTnctGmT6iVgn98ff/yhzF9ixIhhPFIQ/oHrJQUNhw2zbJcZbZZjMXND4cIMNDPPnMvFLA0zNMzayCb8x2CJH0cDUPzwfKWIfPTokSqHY0aHv2P2jfLc5fgA/v6/xVxBsF1E5FgJTOnyYsuyCka5LXHj9+LueVy4baonNhMrYXJky5IOEe04pUxRygZ5CgFLhI2sjD4yYzNr1ixVHsZIWb169dRr5gWaZQPDhg1TRhi06GW0m82uZP/+/di2bZsa/MnSi2+FFyZuKJm54eaA0U0KJw7rNNebC0Jwwksg35c7duxQ2R1uothHR3MLCnhumgT7hdlllpnRYZJBnxMnTihRw5IqbrCzZcumMjS8TrN/hlnvkCqncn54GWeuPzU+M8H1OVb81MicLrn+uoyDVgzPVwof/k1oG8/gHP82FEHs7+HfgFkezszi34RZNLG5ti9E5FgRtMtlAzs3o9w0Wxquzk+wbs54tJtzFBuWz0GSiD5YNns09r2IhRVLZyFdbPuLqJibKWmzzN6qkICvgYs/HcmYdeHJzh4bbt6YrWE5wPjx49Xiz+GqadOmxcCBA5X4oLBhJJIbP973559/qh6oHxUgfC0UNPzaNGSguKJbG40LuDmg844gWAIU9hT8tE3n/B1G4NlzxpJNNkaLCLcPaM1Mscv1k5lmrqHcWDMrw8AMZzFxI80MNNd6S3lffHjzDLtWT8cffZZh5MK5KJI2Cfz1Y8tXL8T5FxEwZNQYFMkU33j0l/DEixde+s9mHZlMXl9YzsY+O1YmHD16VIkf/s34t2FpIAUPh0OzFNqSe3mFoCGwyKEqFiwYHx8frWzZslq6dOk0feE1jloWN/bO0WKnKKTdfeWuPnd7ckxLFclB6zRtu/rc3nj16pXm4OCgrVq1yjgSvPj5+WmLFy/Wtm3bprm4uGi6qNAGDRqk6Yu7tmTJEu3mzZuaLmK0HTt2qMfrFwMtRYoU2q1btzRfX19NF0fa0KFDtfXr12teXl7qMT+Cv7+/tnv3bq1GjRqafrHR4sePr3Xr1k19H76vBSFIcXXV9Des8cnPwffnlStXtI4dO2qxYsVS506zZs3UMcE2efDggTZnzhytQoUKWrx48TRHR0ctQYIEWu3atbXp06ervz3XU66vlsz9k8u1BNHTawfuOBtHNM3X47024s/ftSTZq2m33noYRz/Pzf0LtD4L9hmfWR/8++iiR7tx44Y2b948rVGjRur6xmsy/5516tTRFi1apD19+tR4hmBrZM6cWcuaNauWPXt2ZfknWDjclEaIEEHr3bu3FhAQYBy1HD4VOR+dzmsZIjtqXabvVJ+bCNDePLumzZgxWhs7e452y8lFP6If9ffUdm1apk2dt1R7cPOR9i7AT3v98Ly2ZtES7dFzJ23JgonajAVbtPc+vsaXCdA+uj7XVi2bpo2cNFE7fP2B5qcf8/Nx1S7uXatt2nNWe/f4qjZlwmht/8nbxu8rQPN0d9b+mjVZW7ntsPb44TPNtBUK0F49uqhNmzZKGz/vL+3ea1f1mn6WCxcuaOHChVNiISTg4t65c2clMsxQvPBY3Lhx1f3Lli3TihYtqrm5uanHtWzZUsuTJ492+PBh4xk/Bn/fFEarV6/WcubMqTYKXHBmzpypxFbg1yQIQQY3LJkyafobzTgQNPD9+vLlS23UqFFa4sSJ1TpcqVIldW5zM2WJ67Hw3/Dvxr8f10L+bQsUKKD+thEjRtSKFSumjR07Vjt//rzm4eFh8aLmUz4ncsi7R6e0zDHCad3n7lU//4sbJ7RZY8foP/8M7dwDBlB9tWM7FmiZE0bTclVsqo2av15dN24d36ZN1n9H4yYu0x68/mj6YlYEz2FPT0/t3Llz2oABA7RcuXKp63OkSJG0woULq78/91j8WeV8tg1E5FgZPPEGDx6souHHjx83jloOSuQkzauduv5Qu33msNa2SjGtaM122osPxgN0nl7epA2ZtlT7qF8wTq0bqaXMVFK75uShbZ/eUxuy6pTm7/leG968i3bbw0VbOaKXlipVCq1D92HaiGGDtZzxYmiVes3VuD3+4HRTa16nhnb0zht90T6rlcmSTOsz/6D2+MIxrUmhjFrBBu20aSPGat0bVNNipS6hPXzvqfn7eWmDmlXXdtx30949OasN7j1Tc9O/1sOzq7Shs9Zqnv6+2r5F/bR0eapod994qtf7MzCDwgsmMyQhwbRp07QOHToYn/0DM4GpUqXS+vTpo4QIM4SjR49WF/qJEydqQ4YM+eEMC9+j7969U5GzDBkyqItIyZIltV27dknWRvi1cBPaqZOmK3gqfONg0MNzZuHChX9vkrgZ3r59u+bu7i6bIyuAm11XV1d1DWXAkBuhsGHDanHixNGqV6+uovtOTk7Go62XL4kcP7eXWuW8CbUCDUZozg8Oa5myFNSvwe7aqVl9tfi5GmouKv70UetbPZvWdLKpCuPpib+0lLlraW88vLW5HaprRZuO1Txt4K3+5MkTbe7cuVrVqlVVppZZnvTp02tdu3bVDh48qIJ/ck5bL4FFjlgYWQGs92VvB5vZ2QTOeSIWh8c7HNizGvUrV8bT1I1wYO10JPh7PIwfFk2YhgcP72LquHHYe/U94oV+i6Pn7+K10z2c3LYNV55/ROfRfZAgQnSUbVAVMRzDoWardujbfxAWzOyFfXPm45m/P/YuGovH8YqhcJpYiJEsN4b0bIyJvfsibOZ8qFguG0KHT4LWfXtg5KheiOHuipdePtCvbnjy+CIObNgJ94hp0bFrTYTTX9OsEZPw7MktTB47HsfueiCa5zOcuv7EeM0/Dl2a+DcLqUnONBCgfbWnp6dxxATdomiTS3tT2uROmTIFmzdvVr0xNBxgT873Nszq64kyyOBMINpN6xcJNciO/Qx79uxRrm0h1YQr2AknTwKLF0NfJKG/+YyDQQ/PGc6MYp8GeyX1TZAyJihTpowyhqG7lmBZcH3iesy1qH379qqfho6Q/HvRkYsfuR6uX79eGU3Q/MRWYX8CeysDfP3gGDM1Rk4YgjQxHBEnWUJ4v7yPVx+NBwYiRvKCmDShK2KEDkD8ZAnw9vF9fPQx7rRi2KdDF8WNGzeq4decC8c+q+3bt6NChQqqd0cXwmoEBPv0BOtFRI6VQNve6dOnq8FZnELP+SIWRZR4qFW/PRYsGIGTy4Zhy7nAYuEtrp12RsVGbdXC0X/wGJy4chF/ls+Kik26Ib7bPlQq/hs6jVkJn49+6hkO4cMhcgTTvIpseQshkt9bvHbxweULN+EQaO5F6oyZEO7jUzxzM30eNXpUcEvt4OCI0MbjwjiER6defXF6eT+UKvY7Fmy7CM33Ja6efofqLTqp1zRo+EScvnoODYumVc/5GbjZ4XyEkGqop6MMF2c2YQaGwosNeWZrXIoRWqDyRkeg74U2nnwvsqlzyJAhatOwa9cutXGg5bRq+hOEX4mHBzBihL4QpAZateJOzrjj10GxU6NGDTVrZ82aNWoyOx0CS5YsqUw92LQuhCwuLi7KeIVBQa5PNO2hKxo/MrDDxnT+rfh5SAWjghsP93dweuaMtDky6O/ZeEgb0wFTRk/EoXM3jEf8PxHipURc7xcYP24GLtz5t2ubrcDrYeXKlTFjxgz1vqBrKIUwXUBpS80gxpgxY9Q8N4vbdwn/iexCrAhuIhltp80pIw+MJFoaWX9vhRH1s6GTLh5uuHoZRyMhXjJfrNu8H/6Gmd/Ht89x++FjOMRMi5mr9mHtXwNxa+MYTFx9Xt3v5+8PPz9/9X9fPz9ESJYOSaKGQYJ4sfDwxhW8N6JJ3LiHS5oOSf/OGv0//JaJc1fDjv1HMKRVUczs2wvHH/kifjIvrN18yHgU4Ob0EPeevzA++3Ho9MKNz6+Y0M9Fls5oX8M8JK1v377/l/Wjs1nFihWNz0z2ot/jDMT3HL8/hSGHhTKDw2zNvn37lHtawYIFVbRQEH45PLG3bweOHQN69QJixzbuCB547jDqy2gwI8C0ru3YsaPaINGdjW5cQvDBtfH06dPo37+/isqb1yXa0zOzTNct2uOXLl1arc92RYAf9qyehjvIjKaVi+Le8TWo120cyjZphRoVfzMe9P+cWDkabWfsQZMO7VGyYBbjqO0SKVIkFaDjdY3vF7ra0oKaAWaO8+C1c/bs2Sr7Y4n7L+H/EZFjRXDTTCtTXlh76Rf1W7duGfeELK7vPsD73Ru8cGN5lAOaDZ6FApHOo36r3jj/+DX8ERlN2rbD6ald0WHARKxeuRwL5q5BgEMs7F43C7svPkOeknVQu3QOxI5nsnf0euuMI1fuwt/XExsXr0StP9sjrqMjqrTthBj3D2LuxtPw8fbE+i178Ge/PojrEIC7j5zw/P4zePkB7946wdPjCZ69/AjN3xtTJo2Ek3ckVGvcGPmzpUPU8LHRqmN77B7eCp2HTMXqFUv1Tfp2hA778xP2KXJ+xaR+WprWr1//P9PnjEzRHpqCpmXLlioCxbk4zNhwFghn4BB/XUjy+LfABZ2D2LiJ46BQChoO7+TEeF4AcubM+UtEnSB8EZ4HQ4cCv+mbtEDCPbhhZofnxMqVK9X5xU1Rly5dVGaH54mUu/xaaBXM0lv+vilgGATkesRI/OHDhzFp0iQVkbcXq/oP7h/gCV989PEEt+HeH15i1dRe6D3vHEYunI1iGePh9eN78HALi9hRw+HenUfwdH+ErVt24q1HeP0aHA1XtmzGgnmrcOvaFTiGjokIYb3w6PErvH52Cdv2n4S3qeDCpokbNy4qVaqkBrLzOsf3GAMb5gBftWrV1HtMzm/LRubkWCEsWaPnOyfRb926VUUfQopbJzZh+dYTcH7njrgJE6HuH12QKWEEvLxxBGOnroZj7LioWO8PFMkQD7eObsOClbvgFTs5WjVviswp4+Mxh3i9uo6Llx4hRep8qFipJLxenMLvFZuhWaeB+OD8APHTF0DVisUQ2VHX5Jo/Xtw5j7UrduBjtKjIVLQUyuTMDNdbhzFu3np4+4ZDpYaN4XphNw5duY9oKQuiX+f6eHDuLO48u4BHDz8ib4nqKJgrDcJqvrh6YAMWrTuAgITp8GfTRkiXzDTs8mdg6QovvIwEBRWvXr1SqXTWjU+YMEH11nwNntYsJ+MFnx95gefwNEagOOshe/bsKmLF7ODXLv78OszcTJw4UWUPI0SIoIQTZzexrllK0oQQY9o0oG9fYN8+IF8+42DIw4wCy0V5zrCkjb2UFD2ct0NBJPw87Dfk/JqFCxeqjxzMyewNewspOLlBtcegy/1zO7Bk8xE4vfmAOPHjIXI4RwSED4uEKTLgt/wFkCxeTBXZ9vV8iRkTp8A/diZULpUVS+ctQpE6nVEyRzI8u3kMk2ZtRtmmf6Jwch+MHTUXyfOVRs4UYbBm40nUadUBWZPGgj1OjOK5zesoM7cMaly6dEldT3ldZgCS10Qh5JFhoFYO/2Q8yerUqaM21Iyk2xIuj0+hQrU/MX3LCeRMbH3DRFnnzczHli1bjCNBA//ukydPxpw5c1RkKfY3lOfwOczY8CNvzNyYT34OAv1aqdqzZ89UeQc3Eoxgsb6dmcQ4ceKIuBFCFhcXIG1aoFo1YPbsYOnF+V54rjEwMXLkSFUuxQvv4MGDVSZesp4/BjeYXI+WLVuGx48fI0WKFCroQgHJvkIxORGCCwprBjPYy8M+LwYAeW7TyIfVEnKOhxyBRY7sVKwQbkx5MnGi/ty5c1XE0FbqQ7UAPzy5cxkPbr/FjetP4BdgfRrczc1NLXg/CqNFq1atQvfu3VGlShWVcdmwYQP8/PyUIwwzd/ybU7QEhvXnnx7je4U9Mrz4U9TwuXxtjCh/TuDwfcSNRM+ePZEhQwblItWtWzfcuXMHffr0Ue5DInCEEGfUKNPHIUMsUuAQnnPsj+MGiE3w7AOhGxvLqhik+NZSUXuHm8lDhw6hZs2aKivG8rPcuXMrk5Pr16+rdZIRdBE4QnDCwB9NLZjRYeUGs7U0t2DvDkUO92YsXZfenZBFditWCjeo7I9g1KBfv36q+fXTDa414uv1Bjfvaxg8oR/cna/jvYd1bgR+tCyFCyIFTNq0aVVfDcUNbWtZHsaaYIqUYcOGqTI09sgEhjap7MP5EfjeobhhpJkbCNYh871FK+pBgwapHqOvZX0EIVhJlAiYMAFIkMA4YLnwvKG9+t69e1UG4sOHD8qxqWHDhrh48aIKXgj/husgrem5UWT/A00EGGihmyPXPW4sWZ7GAI6sS0JIwfceb2wdGDBggHpvMjBIxz6K74wZM6qAIfun5TwPGaRczcphbTJT9adOnVJe/4ws2BPcMKxYsUJFT5h5sAToMEZ3M16gv5cLFy6ocoxp7DcIBC0sKUDoHkQBxBpgXuBpg8pTmLaX7JmhKwzr0b+H58+fq+/JMjhGl1lb3K5dO9VALRsIQQhauGYtXbpUnavcyFPsMFvK883e4UaQPYBc07lZ5Mwvru0M9NC17mcy5IIQXLBEnNdyBgsZgOb7mO0FrVq1UiMexIH01yI9OTYGm9LZB8L5LBQ6lrLZDw64KefmoFGjRqr23RJgJoTuPt8ichixZLaEoognJLM4Dx8+/D+R4+HhoVLgjADzMaz1Zykby9coRNKnT6+8/plC/1a4weJGgpaYTKuzabdNmzbqa0lJmiD8Wnj+/fXXX5g5c6aq36fQoaFIzJgmh0l7gus4S33mz5+v+pdohsLSPv4+GA2X9UiwRri9pvEPgxoUPJyhFbhvR8TOr0F6cmwM9kkwos8LBcua7t+/b9xj+7AOm05hbAC0FBjFYf/L12AGjqVoQ4cOVZO46ZhHWH9OVzb25QQmYsSIKntDAUQoZFnvz0WS0SFuCL5V4FDQUESx3IOlb/zImneaGsiGQhCChwQJEqiZLjz3ypUrp2ag8SMDVZ+e/7YK10FmoRmk4zyby5cvq98JrZ9Hjx79d/BHEKwRBiBpjsFSNp7n/MgAJc9zVuDwmJSx/Vpk9bARGH1nvTeHPzZo0EBFD+wFZk5YC2spGwOmpr9WVkERRNcyupR16NBBZVLYQMvjrN2/ceOGcs/7lNSpU6uBg4RZu7FjxyozALoKfUtZGUUwh5ux8ZmDQhlJ4maCkWRuJsQNRhCCH5af8hxkIz0dExnMYNCC5S62WmjBNZLXK65FnLfFwakcoMpNH10ckyZNKuJGsBl4fU6cODG6du2qgpjst2WfDrM6rMig1Tyvz0LQI6uIjcCTiJtWbmJZBkEnGvZa2AOc9UJHM9ZyWwL/tTHhYsaLOfun2KDI7AmjmLyo8xgH17FZ8VOhykWR0R/CKDDL9L51I8BSEJa6cQPFjRRNClgawiyYpMwFi4fRTl2Q67th44BtwYw0e/mYxWFpCzO2dFXk0Gf28NgKPj4+qmyHPyvt6Jmh5s9MZ0iWy9pjqZ5gX/D6y+oLXpPZB/vixQsldCh4jh8/Lm5sQYyIHBuCQocbfpZBvX79Wm2ceQLZOvyZKRzoVGQJRI4cWfXQfAkKE9bm8qLOsjFGMDkZncYBfB5LD3mx58JHMcK/JY+xgZHHWeLBx/1X5oqLJYd/MrPHAXkuLi5qQ8EsETNGYrkqWA3nzwOVKwOnTxsHbBNmgFm6xQ0QAx1cG1hfzuCVNUd6WYZLM4Fs2bKpDR6DNHSbY/aKpTt0jfyWbLQg2ApRo0ZV12aaCXFkBHurWTrOLC6rOUTsBA1iPGCjsNShWrVqKlOwadMmlf63ZZjVqFSpkrJZDmm+xXiA5XWsPeffyQzFCy/+TGfTgpp/Nz6OZWzu7u6q14oih/04dBrKkSOHioR+ChdHilu6NzFSxMgRN0wcHPtfvUKCYHH4+ABNm0JX7PRJB2LEMO6wfTh/g4YEDHZwA8TZaBQ91lJaymAMXzt7/7hxY5a6d+/eyjFNytEE4R94/WeWk6XsHMTNIbc9evRQM6DkXPk+xF3NTuAGmlFB9mywBCJdunTGPbZHjRo1VEP9/v37jSMhB0vO+Lumc9L3wIWN9s0UJBUrVjSOfjs8lTknh7XuHJhHcUT3NdpBs/9HEKwSmoroG3yMHg39zWwctB94HjMDS5MSBi8oev78808VwLJUmGXmAFRa33O8AU1SuGErXbq0bNgE4SvwGs4ePfbq8lwxuy5a8vluaYi7mp3AbAKnbbOmmz06586dM+6xPfimZmkWG1pDGmZLmHn5L5hxYQmZGTYmsvSOH78X/twsB2GGh5shiqQDBw6oQZ4icASrhb04EycCzETXqmUctC+YtWFzPvtWGN1l0zKz1gzoWFpJCwMtdLrkXBsGnijQaFPPElkO9BSBIwhfh5UXZjc29ukMGTJEtR6wXJ09bcL3ISuOjcPGcp4crHnmhZIbX1tM3lHkUMw9fvzYOBJyfM+smh07dqgoLbNuHMhJBzXWrX8rtJ/k5oczcrgBolMT69xZqsZsktS5C1YNzUS2bAFatwa+c8itrcGMPGeBsYyVwoflyHRrYi2/JUCjlE6dOikxQ7fI6dOnY+vWraq3kOW3giB8G7xu81o+Y8YMdQ5xTAhNg3izFIMla0FEjo3Dk4X20mxcTZMmjWp2Z5O7rXmzc4owsyfmOTIhCUUOG23/C0Y1aQjAvwe98ylI2ZT7rcKENe6ci8TNDiM83PywVC1fvnzimCbYBvpFHsxEGq6C9g7Pa/a1cOPDaC9r+Jm9ZaAjpLI6DC4xqMLXtWbNGmVrz2AaS2xowiIIwo/B871IkSLKmIDla8yS8jybMGHCN1WLCCJy7AbOV2E5E9Of7NHg4DlbSn0yyhkjRgy18Q9pokWL9q8ytK+RMGFCZQ7ALAyNBL6loZgzcgYPHqwsZjnnZuLEiSojRItoiZgKNoOzM3TVDjRqZPdZnE+JHj26qtWnSQnXm+rVqysjk+C0m2YpGsUVDRFoJkCxRaeo7t27q5IbQRCCBhoMsV/32LFjqFOnDvr166f629jvJnwdETl2BBvXGA3gxZCN6Sxfoz2xLcA+GJZnXbt2zTgSclBs0QThW2DWhkLnW7I33FQwosNeK0ZyGCllZIcCKUqUKN+cARIEq0AX/wqWqgn/BzPBnLFF9zI29TObwo3PpUuXfmlJMr82Z7Bxzg17/7j2UuzQTZLBNFmHBOHXwGAug5rsx6O5BwObnKXFwKcttiEEBSJy7AxekDjtnlmdkydPKicwfrR2T3bOfGFZHmvBQ7oUj1FWzsEJKvjznDlz5u9hnuw/YsSUVpNx48aVTYVgezAjsWABUL8+HTmMg8Kn8NxnlJela5w7w+w8S2ApOP5rjtaPwK/Pa0euXLnU92OwhRsuDve0FltrQbBmeJ4VKlRIuRd27NhRBa5Z0sbPrX0f9ysQkWOnsI/j4MGDKuvAEjZeFOnTbq0wqsm+HGamnFnmEoJwlo2bm5vKvPwMXLA4G4fNvCwJeffunTIp4I0RXEGwWdjTliwZ9De/cUD4LzjglxkV9l127txZ2UwHlSkBo8Rci+iaxgwO1yOWzrD0+XuMVgRBCBrY78b5U3QupLEUHdhoTCK9Ov9GRI4dw40yTxDWeLLcoXXr1njy5InVpj3pRsK0bUi7DbFGngKFQofR1G8xIfgUeuWzpJBR2W3btikraIpSlodIxFSweWg2cOgQkCGDcUD4FhhgmTZtmnI2Y59euXLlcOLEiZ9a05m9oaEAS+GY9Z8/f74yPEiRIoXxCEEQQgJmclmNw3OdWZ1Ro0apNgRxYPsHETl2Dvt0pkyZoi6K3EQzq7N7926rTHumTJlSTdgOCZHDjQA3AOyZob89xQ0XG5oDNGzY8JvL13x9fVWm5vfff1dRGvM8DDbzsgxOEATha9CRidkWBrAYEKEpAV0XubaQy5cvY+zYsd8UfOFayqwQ+/5YosZMUYMGDcS9URAsCFbkjBgxQpWS3rp1SwU31q5da3Muuj+CiBxB9emwiZ3RADbB161bV/XtfGvzvKUQNWpU5epz794940jwwe/JeRDcXNA+NVOmTKqMg6VzV65c+abFho+jMGrUqJESn9yksJmYs3Ok70YQhO+BooRW0wy0tG3bVgVNmIVhIIvNygyefAlmfjg8mmsaszgsg6HVfapUqWQtEgQLhCX7nJfHXjn27XIvwvPWmtsQggIROYKCFy6eGOvWrUPPnj3VECpagrKZzVpgA26iRIlU7XhwkzRpUlW+kTdvXhw/flz93rg5yJw5szr+NUtViklaQpcsWVJFWTkUdMOGDaq5UCKmgiD8CFzTEyRIoPot2TszZswYJXZY3sLSXkZ6vwQz0swmc4O0ZcsW9TzW/QuCYLnwnGcggplb9vIyY8tZeiHdpxySiMgR/gWtiDnzgJt0RvN4oWO5gjVYFJpFzp07d4L9tbIJkIM86VtP8wNmlVgOcvPmTRVR/VwfDY0JmK3hpoOLEZ3TaAnNHin+LIJgV/CcNd+EIIHr4MuXL5VJAAMm7O1jEIVrDNeeT7P1LFMePXq0MhgoWrSoigqLc5ogWBfcfzBwynOdJaZly5bF3bt3g31fZAmIyBH+D6Y9OZiSGQmWNbBMIXfu3Kr0wZIHiPJCzAglL+rBORTPTK1atZA8eXLV/MfNAsXOgwcPkCdPHuMRJngfy9v4eLrcMdrKfp7x48erMjVBsEs+fgRKlwamTTMOCD8LnZa4xnB2Ds0CWIYcIUIE1VdDgcMZO2YYlOGAUQohfly9erWyqBcEwfrgfoh7DPZac8/BYCqDHfYmdETkCF+EPSUDBw5UjfTsC2H0r1mzZqoczFJPFKZq6UwWEv1EjJ7QtnXTpk14+PAhLl68qI6lSZPGeARURoxlIyxru3r1qioloXtatmzZjEcIgp2ib8Rx/DiQPLlxQPhZmBGmYGGpGddy9uGwP5BrEvsGN2/erNZylqWxTJnrERuYeZNSWUGwflgyv3PnTtWOQCMjmhPYkyGBiBzhP8mePbvqEaELG+1IGRGgvTHntlgaFGN8XSFlmlC/fn3EiRNHDepk6Rn/z+wO3dZo7MA+J4ocmgtQPLIsJFy4cMazBcFOoZvj+vWm2Tj58hkHhZ+F0VwGpuiYmSRJEtSoUUNlc1xcXFCzZk0cPnwYL168UNlnlrawUblLly5iLiAINgQNpbiHo+kIy+ppaGTJVTlBSZjBLNwThP/AwcFB9ZZUrVpViQjOYmB0gOUM3MRbStSPEck5c+ao10lL6eCGEVOWiPA18PfE8jlmbdjnNGTIEPWaGC39448/1DwdQRB0GDDRN98oUwb67psdtMYdws9CwRI/fnzlvMSAysyZM5XoYbBq48aNKiC0YMEC1ahMq3rJ4AiC7cFznz3WLOWfMGGCyuDmy5fPJs/3WbNmqXVP3fQfVLo8he+C9Z1ssB8+fLgyKGB2giURltCgyjKx/PnzY+LEiaruPCRgT1CGDBlUaRp7m1g+x99Lnz591DRymjsIghCIXbuAGjWAbduA4sWNg0JQw7X79OnTar1muSz7cMz1+ixdk1lcgmDb8JxnxpbVOG3atFHBV/bp2RIszWNvOW+SyRG+G6pjlj4wW5I+fXrVU0LL6evXr6tysXjx4qnHhAQceLdy5Ur1OmjB/Kth2QeHb3HjwHK0XfpmjZuFZ8+ewc3NDU5OTkrgMIJCG2kKH75GZnw4n0gQ7B5/f2DUKE7UBfr3Z8jRuEMIKphVptPjmTNncO3aNeUGeePGDXz8+FFFdFnOQtHD+/mRpiksZ2FPj6xTgmA7MHPDgDQzO8zosJSeToohHaAOSiSTIwQZfPtwM89mNtZ182LKfhO6srGMLbjhRZvzZpiGZQ9RUEOBQkMBDvykvSr/z0WCN0ZDuFmIGTOmOrkYReBHWkVz08Dp4Syn4+LCzQNd1ziojzcaD0iZiGCXvH0LZMwItG4NDB1qHBR+BmZn2BNIowHeOH+Law+FC9cplq8x6ML1yby5YTMys87MRDPay3WKwRiWKXONKlGihOrPtKXNkCDYKzzfaRdPk5H+/furShPuWWyBwJkcETlCkMC3EbMUzOhMnjxZXSQbN26Mrl27qmGYwXXy8OJesWJFFamkBSov4j8Dfy6KFHrMc0Aes0SPHz9WGwX22pgv/HR1YwaLj+f3fP78uXoeS9NixIihvhZ/BxzKxTk+FEcUSefPn1ebDz6/bt26yriAfTuykRDsAl5+OJSyZUvg4EGO6TfuEL4XblpoTc81ikGnJ0+eqHWK5buM1FKsMMNNMxSuU7wx08zn0QXSXKrGdYpBGa5TFy5c+Nc6xcAVg1gsu7WkXkxBEL4f7lFoGc85fRxh0aFDh5/eM1kCInKEXwovkNOnT1duPczycOPOidtswqeBwa+GE37Zm0NjBNpg/yi8qDMaSjc0DtRi5LN06dLKoShnzpzKYIC+83wMNxcUQixTI4Ev/oye8nVQ7HFjwN8DszjcfPD3ce7cOaxZs0b52bMJmHMt6HBE8cRoqiDYLAEBQOPGwI0bwOnTdDgx7hC+FQaUOGeLNfYUJAyqcPgf1ykKG67BR48eVUKFaxTXKgogbmY+XacoipIlS6aCLrwxI16gQAEVdOE6tW7dOvU9+DVpZECjAvYdSkmbIFgnFDoMRtMQiYFh2kxbu9ARkSMEC4wS0rWHN2YweFFs3769uij+ys37gAED1OBSigZzFuV7YGSTmwY259HmmSdM69atVdaGJWdmQcKadjqksfSDvUm8MQvD7A0jo4SZJZbweXh4qPlCjI6yh4dfhyKJBgUUTrVr11Zfi2KK2TAOEWUfD8v+KKgksyPYJPoFFgkTmjI5I0YYB4VvgesULf1ZcsJ1inNv2rZti99++00Fmph5Zqna7du31XrEUlrOx8mYMaPK6LBk1uzwyI0O+wtZ7st1is/hWsV1isf4HBrM0Haaayr7D7kpYjCJmXOz2JF1ShCsDwZKODiUgQw6LjIAa82IyBGCFc5hWL9+PebNm6eiiGXKlFFDM2kM8CucxmbPnq0ECs0AEiRIYBz9b3gq8KJNZ7YlS5aojAtdiBjJZPRy0aJFqradmwUKE4oeDtpihuZ7IpmMmPL3wCnk3JxwI8LNBMUMPezpdMRJ5MyGseyNxygO+X1tIZUsCH/DTM6kSUDVqpzkaxwU/gsGQdg0vHjxYrUGMfObO3dutW4sW7ZMlcMmTpxYrVHsUeRFnwGYH1mnuOYx+GKeqcMy3Za6KOW6yPWLMzeYwWYgiOUu37PmCoJgGTAozcAqAx4MEjOja60EFjnc2AlCsPDmzRtt4cKFWr58+bSIESNq+fPn1/SNvKZv5LWAgADjUT/Ppk2btMiRI2v6RsA48t/4+vpqa9eu1VKlSqXpYkIbN26c9ujRI02/gGuZMmXSokaNqlWrVk3bsGGDpi8GQfZ6+XX4869YsUKrUKGCFj58eC1XrlyaLgi1u3fvagMHDtRix46tXoO+gTGeJQiCPRJ4nYofP742duxY7eHDh9rkyZP/Xqdq1Kjx9zoVVJjXqdWrV2v6RkiLFCmSljNnTm3+/PmaLoS0QYMGqXVKF1za/v37jWcJgmAt8By/ePGiWlfq16+vffz40bjH+uA6lDVrVi179uyq+VAQgg2eSK6urtr27dvVxThKlCha0qRJtS5dumiXL182HvVzHD58WAsTJox2/fp148jX4cncr18/JYwqV66s3bhxQ9u5c6eWN29eJcaaNGminTx5UvPy8jKe8Wvg1z9y5IhWvXp1tYn47bfftIMHD2oXLlzQihcvrn5XY8aM+eWvQxAEy+PDhw9a//791TrAgMjNmzfVOsqgCNeuhg0baqdPn/7l64Onp6d26NAhrWbNmur7FitWTH3Odapo0aJa9OjRtfHjx8s6JQhWhr+/v7Z06VK1/2DghJ9bIyJyBIvA29tbCZHu3btrcePGVRfvsmXLqkglL6Q/ytmzZ5U4OXr0qHHky1BwVapUST2e0cinT59qrVu31iJEiKBEzokTJ1T0NDjh72Xv3r1q88LfCX8/L1680Lp27aqFDRtWa9Cggfb+/Xvj0YIg2DrMgletWlVtPgYPHqw9fvxYa968ucr8FixYUDt+/Ljm4+NjPDp44Dq1b98+ldHh6+L69OrVK619+/aao6Oj1qxZM83Nzc14tCAI1gCDE9wDxYwZUztz5oxx1LoQkSNYFIwWcNPO0gdu7B0cHLQUKVIo0cGSMz8/v+8qD2MmhqUTLFv7Gi9fvtQKFCigRYsWTZV3MBJpFhaTJk36KaH1s5gzXiNGjFDRUm5kGLk1R1lYMuLs7Gw8WhAEW4XrFM//WLFiaRs3blRBnGzZsql1YcaMGSGaMeE6xQzT8OHDVaCI6+mtW7fUWs51qkqVKkqgfc/6LQhCyMJS1yxZsmglS5bU3N3djaPWQ2CRYxuTfwSrhs1hdPlp0aKFmrhN5zLOdaDLGB3Lypcvr2Y/vH37VjXFfQ5amvJ5HMqpX1yVFSoH232JR48eKZtVzryhUxBdgWgmQMcimgx07tz5p+ynfxYaDNARqW/fvqoJkD9LkSJFVDPx2rVrlR1s9erVVSOwIFglHz7QIsz4RPgcbOinecDTp0+VeQvXP65bXK9oBNCmTZsQtZnnOqWLLfTr10+tozRQ4dpNM5alS5cq9zc6stHtTRAE64Az/zgklC6zNGHSdYNxj/UhIkewKCh46LpGJzM6BNHpjBamdGPTlbly7+HFnXangU88DiClSPnjjz+UZTMFCmfOfA4KAw4q5dfghZlWqfycrma7du1SsyEsiWLFiikHNv78VatWVXbUtIelExyd174m5gTBIqHAKVcO+glnHBA+hbb7tJbn+kdbV1o709WM6wFngNGN0ZLcFmldfeTIEWU3zddNQUahQztqrsscFi0IgnVAp7U6depg8ODBKnhhrYjIESwWZi04RJQZGlqYNmjQQP2fJx8v9H369MHx48dVFodRTs6c4eN4YnLjz+OfQmHD6CeFDa1W6QvP2RLMilBYceaNJWLO4NAOlhsdboBmzZqFU6dOqawTN0KCYDVcuQJcugTIEMnPwnWK5znXqRUrVqiAD22iOeDzr7/+Qty4cY1HWhaJEiVSc8SKFy/+t7ChFT7FT8eOHZUttSAIlg8HBXNOHwMpY8eONY5aIaqATRCsANZ1s76bzmf6BVRLkyaNMgjIkSOHashfsGCBskCkE5l+YqpGXdaLm2GjLF3c2IOjiyJt3bp1qv9G30xYTd0pe5d0EaeMGnbs2KEtXrxY1eaPHDnSap1QBDtk+nRNP3nZUW8cEMzQQKBTp07KDnrz5s1qreKa1aJFi3+tZ5aMLtK0unXranHixFHrtS7MtHDhwinLa0EQrAc6z3It+p6RHCGNGA8IVg839GyO27Ztm5YnTx7V5Go+Cd++fauET+jQoVWDPuc4UCAtX75cCYJRo0Ypy1NegGkZbS0bBzN0MKILXbJkyZT7Sc+ePdXPf+DAAeMRgmDh1K6tafnz04/YOCCYWbZsmTqfR48erdwd6XLEGV3W5qhoXqcSJ06snT9/Xgk3BpVk3pcgWA90dqWRU+fOnY0jlk9gkROKB4ykjiBYJSxd4yTv3bt3/12jXqVKFdWzwpI11obrQgC6uFFNsWyoY9kHn8Pa9lixYqnnWBM0TKhUqRL0TYPqz2nUqJFqUmb5HpsGBcFiYW9G3rxAhQrAhAnsXjfuEG7duqV6C9mXqIscVKxYUZmosFfQGtepJ0+eqHWKP8OmTZtQq1YtVUrMsmKWtgmCYPl0794dy5cvx6VLl6xif5ElSxbV382biBzBquFmn29o1qinS5dOHeNbmpsFOqX5+vrCyclJvdnZ18IG/pEjR2LLli1/N/NbUvPut8KfkQYMNCKgaQL7ivLqG8cmTZpg6tSpVvkzCXbCxYuMTACLFgHVqhkHBfarsI/l2LFjyuFx6NChynCAfXfsN7RW2I9TQRe0TZs2VT2W+fPnV/+nqQzXZUEQLBOzPOB+KnPmzGp9SpgwIa5fv64CxTQYsUQCi5wwg2mdIAhWCjfzjBbSNpr/541vbIoXuvxwc0CnNWY5hg8frjI7w4YNU/bUjJhaqxjg606ePLn6WcePH68ivqlTp8aUKVOUSxzvEwSLZP9+YPNm6CckED26cdC+4WaCwmbAgAGqyZfGIsw401yEFtLWuk6RZMmSqaw5M1MMynBtohkBs+pJkyY1HiUIgqWxZ88eFTjlWsSg8bVr13DhwgVcvXoVMWLEUMELS4Trpnk/KJkcwaZhJocZjuj6ZmrhwoWqdIJigKnXiBEjGo+yXuiqRrc5ijcuSOXKlVOLz/bt20N0zo8gfJHevYEtW4Djx6G/WY2D9s2HDx9U2S1L0mbOnInKlSurdYqOiiE5Byeo4PwyOq55eXmp7FS1atVU2QtdMW1hHRYEW4RrEcd2NGzYUO2d0qRJo/ZSDLwwK9u1a1fjkZZF4EyO5IoFm4YX1Bs3buj7qt7KIpqla/3797eZCyszWMxQ3bt3T1m3Dho0CGfPnlUlIoJgcQQEANeuAalSAZEjGwftG8YZ2aNy8+ZNVfs+f/58NTyT57UtCBzCn2PChAmq7IXChj2SLMvj8GdBECyT+vXrqzI1zslhYCJbtmwqIMP1iYLHGpBMjmCzeHp6qpIITuTmbIncuXOrDUWpUqXUyUofeEYTKRQYNWWJG4+x3pSC4fTp00iSJIma3s20J09qmhgwM8SSCx5jQzAND/gclsZxGnn58uXV92dmhfe7u7ur0jg23X4KL/Lz5s1TvUUsr+PMG3OpGcUZ69b5mhhNYYqYXzNt2rRqoaGY4c9E8wEKOKaT2afDxShBggTqZ5BsjmBRcECvfk6iTBlg/HjjoH3D85YlpoyQjhkzRg3VDBMmjFpLMmXKpP7PfkKWfJlLcHmM5z+b+fmR6xcfQ/gYZk74Nc3N/Rs2bFA9iHfv3lVrH8tMmDkiDATxPq6NPG5evwLD+WSLFy9Wg5Q5hJTrlHmmGL8/y8+iRo2qRBoHLF++fFmtY2/fvlX/L1iwoBI6c+fOVesZ10XOPeP6yoGhsk4JgmVCYyP2/XKd4Ppw4MABVT3CvQvXEkskcCaHC5sg2CS0l3ZwcNB0EaLpmwc1W0bfDChbaV9fX/UYXQgpe1P9JNb69++vPiecm0MbV/P8Gd5oNc3ZNLRFXb16tbKlJkeOHGGgQNu3b5/6PDDHjx9XlrDmx34Kv64uppRF47Fjx/71ON63d+9eTRc36v+0vr5w4YK6j6+Z35PPJfze+sZHmzp1qqYLHmXVar5PECwGFxdNq1JF03buNA4IPHe5TumCRRs2bJhap2LEiKE1adJE0wWQWhM8PDzUWlK7dm1twoQJapYOoU0z14H58+f/vU65urpquqjRdBHzL7vmtWvXqsdyPfkUfQOj1pqvrVO6ENIiRoyo3blzxzhqgvfx+Y8ePVLPHzhwoHbjxg11H9dLfk/zfVu2bFHr1OzZs7U5c+aoNZazzQRBsEy41hQuXFjLmzev2hfxvE2QIIE6py2VwBbSUq4m2CysZ0+ZMqXKdrC2lM35zMYwCspoImEEkZFJNvvSTprZD8LsDqMAfJw5IsCMECMYtKJu3769KhEjPB74Y2CYZWGE9kuNw/y6uXLlUg25R48eNY7+Q8yYMVVklo9jTeyXIieMyrLmnZFSZq/ixImjIi/6+W48QhAsgGjRgKVLgVKljAPCkiVLVLaY6xSzJczEMgvCtYdrFdcOWjAzG8JMDzO/LG8j5jVHF0l/r1PMqPBr0J2NTcM0ZiFfW6d47L/WKWaYmAX/dJ3iGkMDAd74fDoumZ0uA8P7SpYsiSJFiqh1imtW7NixsW7dOlmnBMFC4dpC44GLFy9i9erVKhvM85Z7G2tARI5gk7CsgiUYNWvWVLNjWENK21JerD8HLajbtGmD2bNnq1Kwr5E9e3YldiZPnmwc+Tm4kalbt64q2wj8vfma2Ttkfs0sXfnS6+fX6NWrl1qA7t+/r0pdtm7dinfv3hmPEAQLgJtoXhyNIIO9w3IumoSwlPX8+fN4+fKlavLl+fw56FTGmVjTpk1TJWlfo0CBAsiRI4cyXAkK+JpYtsLSNBq6mKGI4qbHLJC+tk5xPevTp48qxX369KkSTezRoYGKIAiWCQMsNENhMPjcuXOqVJXBFGtARI5gk7A3hSYDderUURd59rHwov8leIFmXTt7a7jR+Brmx1JEBRXMvnCjwOyTGTb7sbfmW+FCxBp31tBS3FHs0O5REATLhD1279+//zvIwX4bZpa/hHntYb/gfwVjKEqYIWINfVDBbDLn+VCYmWEghWvXt8KMFX8G8zr14MEDNWRQEATLhGsJp81wFMehQ4dUhYy5GsbSEeMBwSbh0Co2xG7btk0JnIEDByqHNZascaPALMenMOPDkgymZdm4xkgF51b06NHDeMQ/sGRt0qRJap4FH8+NCYf25cuXz3iECZoFMNLJhj1GKwNnVliKxrI4M7zoM0JLZzR/f3/V2Mfm4c9B8cIyN252aIRAeCr369dPpZTZ/MvIC8tW+FrNUVZBECwHrlPcNJw4cQKpUqVSzo90HsuTJ48qTaXT2qfQRICiiJkQloxwDWGZG7MsgeF60KVLFxWM4TrEZn9moB8+fPi3uYkZlr+xXI0ChHb0rq6uxj1QAoblcmY4Y4xmKyyHZTaJxgJfCiCxBJhGBo8ePVJZKMLXxbV48+bN6muUKVMGzZs3V5soWacEe4fnH89nGidZEjRI4egNZmF5zrL01NLg+lGlShU1qJTZZN5E5Ag2ByOcFAes/eZFvXr16squlBuHr4kcOhVRDHHTQQHyNZFDf3hmWnjSf03kMDPE6AfLx7hwsWTODB3RWDNvxsPDQ/UMMaJLYcbFjv04n+NzIocwasufkRsaDsSiwOKQQZlFIQiWBQUC1w32pjBDwgszz1VmZL8mcubMmYNly5YpoUG+JHICAgLUMZbi0qXxayKH7mnRokVTr2fcuHFKaJlhwITPM8MyWjpRUqRQGNE1zSxgPuVzIodQVPFnpgDj9+NayjX6S2VugmAv0GadPbrMmFoiFDuWmsXh3o5jNLimiMgRbBaWPjAjwws/hQc/8iLLi/GXRA43HNwQsIxi2LBh6uT4kshxcXFREU/WpvPiz4gqNyYULZ9GN1gyxlOMX5dih1FPM9zEmG1fzfB7MwPVsWNHJdS+ZK36JZHDUjt+XVq5MsrL13779u2/rWQFIcTgRZtlTvq5gyRJjIP2C9cClqly3eB5zAws1y6KjS+JHGaDGamkQOAawWjvl0QO1wIGXVasWKHWEgZcuC4yiMPZF4G5cuWKytgkTJhQrVncaJnha6FQMkPx1KlTJxWUYUaJX5P21p/jSyKHlvl8TfwZ2NjMzA6z4tZS5y8IvxJmUikmLBHulXi+W2LWla+JgReunWaRI2ETweZg9oKNsWyAZckXSykocCg2eIH+FJ603Ezwos15NDwxWC72Of1PgcMLMjcZnH1DOGuH0ViWu/F5Zvh1+VrYJ0MoaFi2Zr59KnAIyzYY0bxz584PzY6IESOGKrXjz82P/HnNLnCCEKK8fg20b88wvnHAvmEvCkUKgxU8X/mRAofn7OfWHgocmp1QcFDQ8IIeeL0JDLMtLFVr1arV36VkrKOnYKE7WuCvz6/Ldc3cV8OyucDrVGCBQ7g+tmzZUmW+WX77JYHzNdhryMAPf25mhfh6OAxVEASaUEZDrFixLPLGQAjXis/dF9I3VuBwfQqMiBzB5uCmnhdR2qIyKkmxwws5rVeZ1eDmgi5qtG6lfSk3DjwxaFBA1xDeP3XqVCVSuCGgAGK0lRd1pkHLlSuH0aNH/52y5UWe5SBszmOJGB/Lxlw+l0KDAutb4etmMy5F05c4efKkitwS/gys5zfD78WSN0ZKzSV3/B0IQojj4UE7MSBOHOOAfcN1hkEJRh6ZOeFmn25rXJuY9b127ZqyWua5zj4c9gByg8E1hs9jbTyzyYQGBhx4zDWMZWR0QWJpLAMyZqc29tVwLWOGhyVvXDtYwsYsEiOf3yNWaJDAnr/AWeRPYQkcs1OEP0dgExR+r/Tp06ufk2seP5d1ShCEoEbK1QSb488//1QbBIoNRi7ZzF+vXj1V9/0pFAUs9+BHc/qVGR06Hn0KH8eNAssrPpeqZVSVfTSMzvLrMRrzI7Wr7Cni9/o0ImGGr42v0Qz7bbhRMkPRNmXKFFX3znI61vqPHDnSItPLgh2hb6ZRtChw6BD9jY2D9kvbtm1VeRqb7yleKDpoJf3mzRvjEf/ArC7XBIoB83ns7u6u1ptPYXCH6xTXns+d8yyD4fO8vLzU4xgIMQuh7+G/1ilmefg9zPB1BS5HY2CIaxVLipnFat26tTIfEARB+BkYXOa6pG7GMUGweFiC1qJFCxXxHDJkiBIybM4LrNP5f5aIscSCJRvMxrD8ghdxbiQ+vTHFyQ1E4M0ARcPnHkvREniT8Sn8Hoyw8rH8uj/anMdemi9tHAgFTeDXFVjgEJaBUAjxZ+f9z58//2z5iyAEK05Ophk5+nkkmPpSWLLKDAbXCto9c30JfG6bb8zKBg7EEIqGzz2WQuJLgRjC78Wvx8dyvfoRgUP+a50yf4/AryswNFdhVolCiP06XKcEQfgxmCmlkyr3RhzeyWoTOiEyU8vAyedK9X8Us418oUKFPhtosSRE5AhWA0UOI588YVmywUF3jADSdpUOZyxJY5SSF00KEmY7mF35nhkOtgAFFn92ZpT4e2DEV0SOEOI8e8aduYgcA2ZCKFQYjKDQ+DRYYetwbaIQ41rF///X3B9BEL4MnRGbNWumsqFcV2g+xOwog7adO3dWrmPf4tjGPRQNQ74G91rsHQ5cKm+piMgRQhwKEV7oeOOGnCLm0xuzMi9evFAnKXtWmMWhjSpdgljmwdpwuvzQDY2PY9SQJyKjF7yA2hNc4LhQcfPE/zPSIiJHCHFoPEAr80j/zIayV3g+8rxkNoRrHjMiLP2yJ5iZYuaKPz/XqcCzeQRB+H7MJiEUNszY8sbSLfbgsZeXPcX/BXuauaf6GmaDI2tARI4QJFCgODk5KatQNsQy48Jaa6Y016xZoxr5x48fr6xHaRvKCAO94HmjJSrnyHDAFB3LaC366Y0zb2i3SgceXgyZnalTpw5WrlypHHrMsxbGjBmjzAUonJjJoMjhRsKe4MLGDQQ3D6y5599GEEIcCm2WUH2hjMqeYACCmWmWyjIYw4wGS8zsCf7sFDlcp7kpk3VKEH4NDKAwAMz+ZJqbEJ533E/RPt7cO8c9FGdkcQ/H/Ruzq9xLsbSW+6zP9SozYEPjFBqpBC6J43P5tfk9uNaZYXCHQWqe74FLVPlc7iH5fRjYDqrArIgc4ZvgG5YKnzNc6MhDlx6mRTmxm25jzKJQhFCQcGaM+dagQQO0b99eNcIvWLBARRP4JuZAOl7omZlh9IFDL+mCRqHTsGHD/7vRMpW1pqxhN0c8eUJu2bJFTfnn1+eJQZcg1oKz/MNcL86T2Z7gYsGFiRsHfvwRK2pBCHJ4IdU3tboCNw7YL+YoKy/+DEjwgs5z1Z5gtpk3/h74UdYpQfh1cGYWreLPnz+vhAbdFylk6HzI0jauP9wzUfBwPeJH7iUYQGaQmnO9GJSmEAkMB5CzFI7zsLjH43PYa8fgNd0TeR+dIQn3kTQcYQCWAWqaQxGug+wp4h6Or7Fv377q6wYF4q4m/Au+sfnGZPP+3bt3lQqnqqeS54nBNydvnA3DbIr5RvHBeTAULCwPixMnjtpkm11+zK5k5uZZ3ve1ptXPQeXPjA5TpWxU5VA7RgJoRUoXMZ5UnAXBcjY2tVarVk2dlIwwmGfV2ANcxPLnz6/qZWklSzFJB6cfbTAWhCChc2fg8GF6oDOMbxy0X3iOsuSD61X16tXVRT5dunTGvbYP16cSJUqooBcDVczqrF+/3rhXEITvhQKD13kKFwagP4X30XaebrMMDNOJloPROR+QFTI8Bxs1aqQqcjgCg1DgUCBxD8UbA8ucn8Uhwwxim/dXNDlgWRyt4yla+BooVgYOHKi+B/eSnCXIgeccx8HvR1HUp08f9b1ofc8ea8LHc//JoPqPIO5qgoL6ltP6+Ybjm5EXHAoGvqGpyjlMjmqa5V68ELPcjA1pfFNT1bPxjJ+zHI1WoN26dVMnCOcncAAdsyoUGxQenIVAMcSvxfrr7xU4hOKIIomviY4htWvXxpEjR/R902FlkcxNA8UVI4KMGFBY8fuwHORXw8WFJ+Tn0rlfgwKEYi1wOvdn4c/O3wF/V/w/M19fcloSBCFk4DrIwA3XKa4fPFdDEq5dXFeDC2bYue5xfeLPbm9lxYIQnHAfRBFDIUGTE+75WFFz/fr1v8vVPgfbC9jjzH0W16lP9ypmJ1nuHznEnGKGQW9+fa4n/B7maho6v/J11K1bV4mYNm3aqOOsDuLe01wBRJc4zjAMCkTk2AkUNLwxG2NW7iwP4xuLsxk4KJMXWypzKnxG2ZiW5JuUA91oScj7WI5Gq1NmcniimIVEcMCNOwflMVNBQUFhQ8MBs0sP4UeWq3FGA48ze8SoxK+EEYlevXqpLJOzs7Nx9NugyORzzTN8zH+nn4E/L392bqL4dSn8ROQIIU65cgCji7r4FjgTNY5aY7mWcuNAwxQzLONgfyLPY0Y6aQfLshGuf8zO0ojlW9aJb11P9u/fr9ZSDhQNLrj2ca3mNYTlLfx9CILwa9i7d68SHzRrom09BQYFCj//EgzCst2A5yr3N1+D+zNW6FAQcd/IIDmHBnOEhxlW+rCqhMeZDTIPNee+lEGWpEmTqiod3vi9gwIROTYO3yjc9M6cOVP1u/CCyoZ9phx5UWMqks1hvNjSJIBihj0wtCPkm5UXIKp0S4Abdc7IoXU0X9eXNu4s+eBJaZ6Bw0jFr4QbEW5IfuSkZGSDCwIXH8JICReVn4FNgPzZWWPLGld+DxE5QohDkdO2rRgPGPC85NrMLDfXKZ63ZlgvzyG+vPizvKN3797o0aOHKkFJkyaNWm+uXr36nwKGPY/cbPwXxYsXV0GRnw2wfA80iOH8HL5GXn/4+xAE4cf50vnLsn7z7BwKEZasMevCKhvuOQj74giD1vw63D8ww8KyM1bmmL82H29+TmAYpGEWhsFzrlk8r1m9w69j/nqsWmFfNjM1HPvBxxEaT9E0au3atSpQzCwPxVBQICLHBuEbkJEx1jvyzUPVzKZ9ZjUYBWRdJE0EGC3kcE3eb0v9GrxYmpvjWCvKzcCvJqiEILNU/+VR/zW4kPBvGz9+fNU7xTIQlgwKgmBZ8Lxk7yODIwzMsPcxMJ9bU7hOs9eQgah27dp9NbDCjQVLTFjS+1+o2vVgysgTvjaWtXB9ZlaKGyJ76kcShKCGFSU0EiDsoWYQgRkbnv/Dhw9X5WPs/SMsWaPIofDhfpEloxs2bFD3lSpVSq1L7JOj8GGGlWsNz1cGZNguwL0Fgy3cazELzJI0VtfQVIBl8gygM3PEPh0Gy1kOx8eRpUuXqrWO2Wt+D1KyZEllLtWqVSsV8DW77gYFYjxgQ/ANyawM58dQEXODyz4V9tOwXpJlZvYQ0WcTG0+a3bt3Y/ny5epznqCfu4jzRORjmBlixJMigZELOnwwmkrHOGa9KD6aN2+ORIkSqZ4kCkVemLkg8GTnic/vyegE7bN5wnMjwv4mwsWHiwob4rgAcbHhqUcxxsWlYsWKKprL43w+7R7ZF0UBygWE0Q/+Pfk9eOxL8HVzCnGlSpXU3561r8xkSZRUECwLChAapjCDzjWI5zjXD9bNEzpYMnPDzcCngodlqFwH9uzZozYszAhxjeHmhMKB6wk3PVwHGMVlvyQzQywd4VpGC1dayTLqyqwQv37u3LlVlpzNyEuWLFGOl1w/mKnmRoivjQEjZodZ5swAGgNnXMO4jrLUhNcflkITXo/4upip5vcqVqyYysQTfk5HTq5xrBpgLyfXRWZ2BEH4fihoaF4SGO5reK5yTaD4MMM1hVkV7gu4p2F7ArMwXHu4r+EawSwM7+d+hCKFe5lz586pfaS5tJQlZvyeXAe4fvD7EfbgcE3g1+T3ZQ839yNsI+C6wHWKx7kemAPsPM51iQF6PpYGUz9KYOMBbrQEK0e/AGn6RUObMmWKposZTd/kar169dL0jbamv5mNR9kP+kVd009EbeDAgdrixYs1XTxo+gJg3Ptv+Pvp3r27VqZMmb9/V7qA0fSLrebs7Kw+5+9WP/nU/Vu3btVevHihfuf6pkTTTybt9evX2v79+xks0PTNiqZvPNT31hcW7dixY5ouUrRmzZpp+uKh6cJLGzp0qPq6umjRBg8erJ6nLwLq2LBhwzR9cVH/1wWXtmPHDk1fENT3u3Hjhvq59E2Fuv9z6BsRTV88tM2bN2udO3fW9AVO0xci415BECwFrhtcZwYNGqTpokKLHj26posI415NmzdvnlobPreG6xsCLW7cuNqECRM0Xcxo+qZAW716taZvIrSUKVOq55IuXbpoadOmVf8n/PoJEiTQ9I2E+n+UKFHUdYLoYknTxZFay9asWaM+b9WqlVq3uPYkTpxYrWV3797VIkaMqNY/0qNHD03fJGnu7u6aLnzUMa5dXAf5eP7/zp07WvLkybVnz56p+/k99Q2RWk91UaXpmyn1OEEQhJ8lc+bMmi6gtOzZs2tSrmblmMsdmAVg5oFOaUwLsuaRytpS+mmCE5ZqsZmOkVGmTZmdYeblc/D3wwY81sMzUklYp8ooArNhhGlfplAZPWXjL5vlWD/K3zOjqYxAmmEklJFRpoYZpaClIqMXjIDQKpXGDYyeEtbAMzPzJRjtZC8Vo7z8fmaLRdarfgmmpmkIwWgL3e8YfeH3EQTBsmCkVL8Iq4gqs690Wvs0EvtfMILKNYwZZUY/GYVl9JKR08/BshSWKDM7w8gps8PMFJthYzD7c5j9Z/0+LZ2ZgebzeH1hBJfP42s1r0OMILPElt+7SZMm6hh7iVj3z1kYLJHm1+FazIw6YeSYZSzMLDGjxe8pfYOCIAQ1InKsFAobllXR8YL/N7ta0IaTaUB7vmDwIk/xwJQrfycsu/ja/AWmcllKYXb6oGhh8z8FCi/m/P1yU0Cxww0FB2exEZj1pHSeo/AwY069Mu3L8g0KJ4oalrrR8prlJ3ny5FGPIZ8roTNDAcvv37VrV/X9eKPwolD6HNxkUAjRupsbEW5CWKZoS/1WghVz8CDAoXCfaVq1VyhOGPxgmQcFD4NULA37L9ic6+vrq9Y5BrhoJsMAB0vTvramcK1jCe62bdvU8z+Fz+W1gzcKEAZauA6xpIVChKV1n/YBsd+T35vXIq47hK+PZWyB1y6ulfx5WcpCh08GhFjuwrlsPC4iRxCEoEZEjhXCRk02abH2mReWA+tnqxk25tvK9VvxzjXo5q5YIxQt3CywZp313uzLYS/N52A0lI/ZsWOHqgmloGE/DZvrGInkJoIwQ8SvEdgFicLnS+5tvODTJpEXfDbSMZtEkVS/fn3jEV+HDmmsfzdnmAgF2JeivYzIMntDMcV+JP5c/2X7KAjBBhvgFy7kVF/jgFCOjnM6PF8pVJjhYGbkv6DVM4Ml7Adklph9NFxr2N9i7un5HHweh/iZByd/DYogZrBZ384enYX6347P+7S/j9kgih8KGbolcc1lcInP589jhqKH2XX+fFwLuU4xG841kf05giAIQY2IHCtC0zSVnWBEjVNlWcbE7EOlem3weP9fOPgyIjq3aw3Hu1uRK39RnLzvCnt1leCFmZFRihRuHtg4RwOBL0GLREYrJ02apDIwLPFi06257IwwsklHJDbLdurUSWV0WNLB0jBzBJRRSv6dWKJGgcKMEMUHo5iMojL7Zo52EnPU1vzRbLnIiCyHZjFLRDclfp2ePXuqjcSX3NL4XuDcCUZqGRFmdJTfUxAsAv29qQROMAzntRbYFMySUjoOUUAwS8J1imsIM7PEvDbwGDO7NJahkKB7JgUC/8/gB4NfDMJwDeKN6w/XE35NricUF8xo0+qVpgQsHeOaxbWKaw0zvnws1x/eKLw4w4vrIu1cmXFh5oXOSHwe/89AEA0S+PU4R42T1Pm6+X0ZYOEaynJgfh06NDGrvWrVKlX2xjWXr4dCjwEdQRCEoCbMYB3j/4IFwwsca7cZ/WK/CC8OFDvcXIf+X3tnAmZj+f7xr30n+x6VNRKRpLJUIltStiwlWylrKLsSRRFahEQlbZbyQ2IiorLvbZbs+77PmPH+388z5/SfSoUwZ2buz3Wda+a8Z5lzzpznee/1eyf2tGzmp9qdoZSaVC+vG0vdqM+HD9ZPiYqobuViSohFAJyEOdmOHDnSyRJSdkGJBCddSvv+DNFPSv04MQeHV9Fvg0MSjLZiUNBvg6HB54+cIiVrzB6ilp3rRC6pYcdwILqKWhARTFSJgoZG8+bN3WMwQhjwx0+MBJwTHBiySRgYKCPh4GBwYGTw+vr06XNeBSL+HvXwfD8YpDVkyBB332D/j2HEOmRSp0+XmjSJdngMt0+R8cBRoFeGrC+zKQjKoE6Es8LeFezpI2DCfkBwBceAx5ORYc9gf6Mvh9I3VBYJxrCf8Fj2JZTcCP7gFHEMtTUcF3r4KIGlfAxlI7LeOD0Ee7gP55j8+fM7BUkU3MhK4yixH7Fn8dy8B1TUyPLwd8gicxuOEwEXSqjZK8mKt23b1j0vWSL6dih3w9kzDMO4HGD3sTe6i288m4R0iMO/iBMMZU401FM2wAnod6LO6IUmd2tpnkf1v1fa6OzRn1TlpjtVtNNEvdH+Li36dKJ++G2/jhyT7n/sMd1VJKciThzQpI/f0eZd4cp/UwWVKJhT+X3jPn3Ss1qxIEw/LFur3ZFJ1fjRJ1UkVyqtXzRds1bv0i2FcijDjTV0S57oEq5QBucC8QXKOOiJoT8Fp4KTbHwDfXqMBYwQ4haU0YWFhbmIqmGEBL5xrXr10HiXAtlRI3q+BTNiyDhzYWgzQ5oJhnCSji9wHsM5Yw/G0WLPYp+iZA1HyzCMqwdZ2L8r4QeCvQiOMOuG8n8CpgSOCahQMt+yZcvAPUOPmBLSVq4WB2D2AA4OZVOUKvzBwYnBgYMbNH/RfA3pM0CRhe9Rl0cq6Mj6meow5Gu17NZNd+TapV4vjNWpc9KEl1pp3oki6tCqsca90FoTwlbr9NkoLfzodS0+kkNtuj6jApGr1LTrq9q7fY3e+tj/UrdupST7V2nboYuf7B8b0ENDFofyCKKezI5ArQznJz5BVBWjiBk7lJsQCW7Tpo05OEZokS2bdOaMlav9CfpX2KcoraVMlmzx8OHDXflZfIKMNe+LfYrMD308ZK/MwTGMqw+2AhUmiJf07dvXZXW5IFjUvn3733uBsS9QSwT6kQm+/JOQU6hhTk6IQ/kATfGk9um5oCTq70iWKI1SJk2puxt30heT3tMN2VPpmhsq6b2RXbX081n6YdlOndi3S2cipW1btytjxlxKlymriuTOrXyFiyl7+khNmThTq5bN0CuDh2nzKf+2tOd0NCqpNn83VV36vKW0NzdWhQJxR5KYrA2lEjgBDMTDwaFEgpKP+AD1+gMHDnRRme7du7voKKVwlJQYRkjhG/OiKT6eBRn+K2RrcHL4SdkavX7bt293JRfxZZ8CDCmyOQxdZj/mnEbZmmEYVx8Cv/TR0cdLXzHlrVxYk6zRIAMGDHD9c0CGhHL4uIQ5OSEMqUEazonoITLwb9OgM2TK5ZpYy5YtrcwZoifPHt79owYOHaHI7Nfrvmq3KTjztnXXvvruo1f11sg3FZmttKqUoZk9QscOHde99Z90De7PDxqhd159UjnyFtdbY4Yp3dbZqnf/Q/rkm39X/wkVyGYgEoCDyOeJMUE252LnUYQqzJigaZn/F1KvkyZNcu/3n5xhw4gV0qSJzuZs2RI4YARhb2fdspZxBCgFQQSFLH58gH2KPRgHDpEE+od4v/QyGoYRWpBNRqnxzxCIoQQsLmFOTgiD3CfzDBhAeamNmQs+GK0j2Uqpxl1FlTb1/w8GXfPdPHXoO0APNmiuoW++pEJZkR29RmXuzK5XOrygX/afUGTEYf1v4hwd3bVBP0ek1ysfTNXQDhUVFnb+wZqhCo4iRgQ9K8ypQS2IdCzNuXEZsnxEXJgDhOgAMylQYyOdbBghB4IfWbOigx44YATBcCAAQ5SUyCmKZOxTODuIAMRlyJ4z7gAhFwaKIkDAYFBKsONTz5FhxHXIHDOGBHEmLgxAf+GFF1yFyN/B4GFKT1nXr7/+utuvKEdlziD946hAIkEfW5iTE6JQ+4hRzkmBxvm/g6jf1LGDNX35Bq2e85lGffS1zgRug7J1HtKesM/0xpgPtO633TpxYqtWr9+gAydOqMX9tzoDOU+u3KreuKcOnEqkVr3fVpXcO3Rbwby68fbHlaZSJaVLkkirwiZo6CtDNGfPOXVuUyvw7HEDat5pdmVgHbWklEogn0r5REw557gE6ktdu3Z19bI4wbwnaml5n+dTjzOMWIfvJVLBZHL8fcv4I5SPYFCQ9UCRjIwzSo3ILwdlpOMa1P0TfKHWn0wO+xTNzrxP+o8Mw4h9li5d6kRBcFQYKB4Em2LYsGFOLv58IHeP6iyiTlSTMGsQp4Z5WDg/BF8J0KNIG2v4RrIRYvhesNesWTPvuuuu83bv3h04ehmJOut9OGaEt+1YRPT1yEhvxpSR3pINh6Kvx0MiIiK8p59+2rvmmmu8sLAwb8iQIV7y5Mm9N954w4uKigrcK27Ae/GNBC9VqlTe2LFjPX9T8lKkSOH5TnHgHoYRonTq5Hl33ul5p04FDhgxCe5TGTJk8ObOnesNHTr0930q0t+n4xLBfSplypTeuHHjPN9x83yDyOvXr1/gHoZhxDaFChXyt2V/X/Y5duyY1759e/d7kFy5cnm9e/cOXPO8Bx54wKtWrZr7vX79+t7AgQO911577ffL5MmTvR9++MHznRvvww8/9Pbu3ev5Do+7/9WiePHiXokSJbySJUt65uSEIAsWLHAnueHDh3vnzp0LHL18nNm1xKv6YHNv54Gj7nr4mePe6mWLvaNn3NV4y8GDB71KlSp5xYoV83755RdnTOAoTJw4Mc44Ohg6I0eO9FKnTu316tXLW7lypZc/f36vatWq3pkz8fwfaMR9Nm70vFmzPH/BBQ4Yf+bAgQNehQoVvMKFC3ubNm3y2rZt66VJk8abMGFCnNmnCNS9+eabXtq0aX/fp3LmzOkMpNOnTwfuZRhGbBPTyYE1a9YEfovmn5ycG264wfv111/d74C9evz4cWenENTA0bntttu8FStWBO5xdYjp5Fi5WohBLSNlCqhdoHxxJWqWU+Qsqd6PVtCIV4do8OAh+ub7n3VtgWJKH1QliKegIkLqldQpgzppgmXYJvXvn3zyScgrGfH6xo8fr27durk0MN8P3geDTFFiQkXOMEIaBu1WrUoTSuCA8WcoW0MBEqEU1jmqibVr13aN+p9++mnI71OUAFOy0qNHDzVp0kSNGjVyfYIMD2WfYiCoYRihCQpqFwrD0/v37+/K2XzfwokfMcSYcjVGnlAGx+gObKxYI9rvMUKF9evXe74x7vnGeOCIcbmhXC179uxe3bp1ve3bt3sNGjTw0qdP70pCwsPDA/cKLYiMDho0yGVwWrVq5W3cuNFlb/LkyeNSw1ci42cYRuxBuVqWLFm8OnXqeFu2bHH7FBn+t99+25WChSK8rpdeesllcFq3bu0y5pUrV3b71KpVqwL3MgwjFDh16pR3/fXXO5vifOWwZF2xlbp06eKuY4eQxbn77rvd74sXL3aZHt8x8nyHx7v//vu9tWvXep988onXs2dP9/y+4+M98cQT7vFXi5iZnCT9GI9uhAQ0l6JOgejA4MGD5Z/QArcYlxOyZEzzRaI12Kx//PhxpyrC0Kty5cqFVFbk4MGDrqmP14eaGkpFRHWXLVvmMjsVKlQwlSLDiGewTxUqVMjtT8guMw+LiClKR2Sj2afI4oYKvDbEUBj4yf5E9BYVS2SwJ06c6MYb2D5lGKEBWRcyq2nSpFGyZMn0yy+/6I477gjcGs2YMWPcHoP6I3Lvq1atcmJHwQG+9957r6pWrer2I99Z+l3tlbl9KNpio/iOkqs6uZqCSLwv9hq33wQcHyMEOHr0qOsXadOmjUXmrzDUtk+ZMsVLly6di0qQGRkwYIC7TuTRdzQD94xdli5d6vnGzO+ZJt8pczWuOXLk8GbOnBnnRBMMw7hwOA9MmjTJCab4BoXLjCAwQo/OPffc423evDlwz9iFnhv2JTI49OKsW7fOu/XWW12Ud86cObZPGYZx1bCenBAFyT0yC9RfW8TrykJkok6dOk4Cce3atXrggQfcACykW4ma3nnnnS5zQl381cZfoy6zhIQ4r8l3fjVr1izdfPPN7jpzJ5B5rFatWpwbzGUY/hectHX0T+Mf4TxQt25dN+SXjAjTyFn3U6dOdecK35FwmRP2KfaNq0lwn6Imv3Llyi6TExYWpmLFiqlWrVpuDhn7q++M2T5lGEasYDtPiMAJgxPZtddeq/LlyweOGlcSDIhKlSq5EzMpWdKumzZtcvN06tWrpz59+riSEKZzk3K9GjBIi+ZihuUNGTLENezy+hYuXKj77rtPefPm1bx589zt5ggbcZKff44WIFi9OnDA+CdY5zgKNPTStM8+QCDmu+++cw4Qpay3336726coG7nSzg7PTzkK5ytK0CitZp9iX/rmm2/c68ufP797vQwntn3KMIxYw9+wjBCAhndK1ZiPY1x99u/f77Vo0cKVgTz88MNOAAIpb5rpkJmmFAPNd+YWXe7SCxr+9uzZ440fP96lVxEXoLnPd2ycqECVKlXcsXbt2nm+cRF4lGHEUSixypnT8954I3DAuFD27dvn+Q6F25Meeugh1+TrOxZexYoV3R5Rvnx576OPPnKzKS73PsXzsU+98847XqlSpdxroNF40aJFrgEZIRSOde7c2c3bMAzDiA1ilqsl4kDA3zFiESJzBQoU0Lhx45zspnH1oeSDLMqAAQN04MABPf300/KdTv34449O0pVsStasWeWf2FW/fn3XFEwzXpIkSQLPcOEgFe4bIu65J0+erC+//NKVpZFZolk3d+7c8o0JjR07Vvny5VPv3r1ded2l/C3DCCn8777/RZf/JZcmTpSSJg3cYFwI7FNI3gf3KZr8OWesX79eI0aMcBmeHDlyuLK2Bg0aOJGV7NmzX9LegRx0cJ8icxPcp5hw/tRTT7nKA5qTuZC9IfvNPmXlaYZhxBbIYLMHcTEnJ0TAuG7ZsqWWLFmiIkWKBI4asQHqIczTwcFAReSxxx5zTg0qZ1OmTHEneurhOcEXL17clWwULVpUefLkcfdPmzbtH9TZKHWjDO3QoUNO0WTdunX64YcfnJoJ/TU4S9SwYxykT5/eKaZ98MEHbh5GmzZt1LZtW+dMGUa8oXt36f33o0vX0qULHDQuBvYplNbYL9h3CMiwT+H40LM3Y8YMV37LvsQ+RYkrykdcZ2YYqkrn26fY5wi6/fTTT1q8eLFT+9y9e7cKFizo+kUpkUuVKpXboz788MPf9ynU1AgCGYZx6RAAJahAgCHUwF0IDw//XXEtFCFZQE+1OTkhBpF6TlaclEJJFjShgpw3G83bb7+tjz/+2NXCI5dI4y8Ozc6dOzV//nwXNeV/xnUipTg4GABIMgYh8ooBgTw19ek5c+ZU4cKFnfQzw7RwYHB8PvvsM1fTzt/GYHn88cedYRGqm4lhXDLTp8u3lqVFi6Rbbw0cNC4W9gr2jlGjRrlAGfsUWZaHH374933q22+/dfsUgRmus58QTGGfShojixbcp8jUsE/hDBGAQVaWvYrsECIt/B36bzAdGFbaokULZ1jYPmUY/x3WGBUdrMdQhNeFfROqvXYIRlF5Y05OiIG615kzZ/TVV18FjhihAFFKjAPmPFBWhkOD/juRApqBy5QpoyxZsjjjYMeOHfrtt9/c/5EMDbDIcGIwKCjnoAwNQ2TLli1Ocx4DhKwOUVmirBgnaMojMGBGgxFv2btXKlFC6txZevbZwEHjUmGfYm+aMGHCefcpVNgyZ87s9ikcHW7HWCFDAxgslLSxNzHvgn2KPYv7Ll++3Dk1TDFnj2OSORkjxFkopbUSWsO4fJDJYc0hIhJKsMe8/PLLrhqFGYNXc+7NhcJehAotwWNzckIMBr9x0kCpxgg9WCZsOmw+yLfOnTvXRVBZ6OnSpXMRT7IzODJERzEokFfFqKCmHScGBwjnh5IQjuMM8bz0+PTt29eVlPB8pkZkxHs47VSpIoWHy/f0AweN/0pwn1q5cqVzdlBmpOwMh4XsDRkXssPBDHHGjBnd/akeYL9iT2KfopR248aNTkUNZ4gad+TryWQH9ynDMBIOv/76qwuWvPDCC65vOJTtFOvJCTEwgjGOad400YHQhyXDZf/+/U5umoZfNgCio0RGmRcBGAxEZYAaeDI+OLPUxmfIkMEZDzTqTp8+3clXG0aCYuRI+WdLVFekXLkCB43LRXCf2rdvn8sYU35LVpq9inMOc2zYg6ixB4wWMjhcECvAIcJYIBtENprbLQBjGAkPsjj0jFP2yoUgbihjTk6IgaGMkbto0SLdcsstgaNGXIamQaKoDMqjLA3ntUePHk6sIGgoUEffs2dPJ2TA/93KPowExaZN0s03S0OGSG3aBA4aVwv2KAQD3n33XbcnkZHu1q2bU5Uk62MOjWEYgGPDwF+ETlBVDHViOjlW9B8CEFUDDGAjfkDJGhKu9Fjh6JCtoZkQiXDK1WgYJrqK4lqjRo1clASJVlSNiJoYRryHgaAlS0rTpgUOGFcLYptI4iMiQJktkdkHH3xQr7zyimrUqOFU1dijDMNI2JDpJfhBrwtKs3ENc3JCAEqc8DipjzbiF6itde7c2U3/LleunIuC0LSLg4OKCoIT9GJRSoKaWvny5dWwYUN99NFH5vAY8Z8uXaRixQJXjKsFPYJkcUqXLu1m69AjWLNmTddvSAnbfffd5/oEkZM2DCPhgpjJsmXLXC8OsvNxDStXCwEoY2K4Gz0dRvyFiAgZnV69ejkjg54dZk3g9JDdodEXZ2jatGlasWKFc3pxjHB6yAKFeh2sYRihD7047DnMv6FUFoU0nBr6Qt9//30ndU9G56233nIiA4MGDXJqRYZhJCw2b97sJOmxQ5iJFVdK6q0nJ8Qggo+aDT05RvyH8sQhQ4Zo6dKlrnwN4yIIy5GoKg4Pw/w+//xzrVmzxjUDMzCU0jair9a/YxjGxYKCGrNtvv76azfYGHlpQBoWWVgitsjXk0FGNp9zE0IplN2SlTYMI2FAUJa9gp5xxlzEpXYKc3JCjOrVq7sTCPXRRsIAI4JMzj9JRrM0kXelrI2UMcNCkXRlATNLh5k6DBY1DMP4N8jQPPnkky5wggNTu3bt3/ee1atXu4gtg/SaN2/uMsqUs9GXM3bsWHebCREYRsKB4fTsF/wk8xuX1r85OSEGqcBixYq5k4lhnA+MDUrayO6Q/aGnJyhuQLQFI4RBfmaIGIbxZxA4IStDBuedd95xfYAYAEGQumcvYZI5c7toNCZbjEPEfBzbVwwjYYBLQPUI+wGqv6NHj3ZztOIS5uSEGKhWYKRSLmAY/wZLllrZjz/+2EVk6eUildy6dWs98sgjbnK5lbMZcQpOQ8ePSwyZ9J134/LAXrFz506nikS2BgcnZgYnJhgzRG7ZO8jmzJ8/3wVOcHRiltQahhF/Ya4WSosEVenZi4vVIjGdHFNXCwEoWyKCZhgXAgYKw/qYsbN8+XJnhJQsWdLV1eMwo+BGDS29PYYRJ0DFq0YN+V/mwAHjv4KD89NPP6lu3bouKIJi4985OEDZ9L333uucnbffftuJ4VDihoOEAqhhGPEbbFGEkegRR3UxPpTDm5MTAtAMSm+GYVwsRFpJK9PPReSVSCw/MVaIxmDYHDhwwBk8hhGyIE1KY/vIkdKpU4GDxqXCeqevBseFoZ+TJ092e8I/lZ3lyZPHCQzg1HC/EiVKuBJqDB4GhKLKZhhG/IQ+YRQVqQ7p06eP7rzzzsAtcRtzcmIZFCz4cqVKlSpwxDAuDfq6nn/+eefkjBo1yvXx0DxcsWJFDRw4UBs2bAjc0zBCDPa/Zs2kJUuklSsDB41LgXPKSN9ZpFn4xhtvdJneUqVKBW69cHB02DswfL755ht17drVCaEYhhH/+OKLL9SvXz/Xu4fdELNnLy5jTk4sQ8MnUbe41thlhCYYJtmyZXPqa2xaRHMrV67sUs8VKlRwmR5kYm3IqBFy3HuvhEzpuHFSZGTgoHExIDDQvn17PfPMM24PoG/vv0i/YuhQ4jZ48GD3XER4be8wjPgFNgE9vfSGDxgwQClSpAjcEvcxJ8cw4ilkB2+77Tbn4NC707FjR1eOwkZGKRu/U8piGCFBlizSo49Kn30mbdwYOGhcKPTfsK6RmmfNDx06VOnTpw/ceukgRICCI1HeN9980wRyDCMewb5B1pf5WGPGjFG6dOkCt8QPzMkxjHgO0Vjq7ZGFXblypTNUtm/f7iK05cuXdzN4aDi0vh0jVqFfpEkTKVMmpL4oEg/cYPwTBCoQCSB4Qf/drFmz1KJFi8sajUWuvlOnTk7UBMEThhnbfmEYcRfWL8qsCJNgI0ybNk1Zs2YN3Bp/MCfHMBIIlLJlyJBBTZs21dKlS/W///3PtyczuTR14cKFXeQXFSV6eQwjVsiVS2rcWGJm2LZtgYPG34EYAKIAzZo1U6VKlTRv3jyVLVv2itTTk9GhbI2/h6PTv39/RUREBG41DCOugIOzceNG5+DQMoFUNJmc+EiCmJNz5MgRZ8Dt2rUrcCR0CEbhkP4tXrx44GjoQASvYcOG7gRqxE8WL17sJGNxevh/YzDRfFigQAF33TCuKlu3SuXLRwsRDBwYneEx/gCBCAIVNAiTle3du7fatm17VXo76cnp27evhg0bpnbt2rk+HRPOMYy4ASY/ionM1GMWDr12lyJMEsokuGGg27Ztc8PN0Pw3Lh7qsYneGfGX4Mb37rvvOjlqZM3r1Knjsjy33HKLzXEyri7du0ujRkmrV0vxNMJ4qbA2CUqgmFioUCHnbNx+++2BW68ORH9fffVV9xoojXvxxReVFglwwzBCFs7za9eudYFrKjvee+89lSlTJnBr/CHBOTmGYVwYbAdEhpmv8/7777sAwX333acnnnjC6eZbxNa4KuzYEZ3N6d8/WozAcGtzzZo1rlRs4cKFatmypXr06OFKTmMDHB36+8jqNGjQwPXpxLemZcOIT3z33XeuUoOABL24oVg9dDkwJ8cwjH9l//79mj59ujNkfvzxRxctpjyGAYMWtTWuOJs2STTCXgaFsLjO6dOnnfLRyy+/rCxZsrjeGIZ7xnY5KY7O+PHjnWR1rVq13Hwu2xsMI/SYMmWKC1ZShs6aJQscXzEnxzCMC4LtgTLPuXPn6o033tD333/vRArYLBs1anRZJGoNw/h71q9f75wIsjdEYXv16qWcOXO6cpNQgB4d6vrZE+655x6NHTtWmTNnDtxqGEZswvrk3M2+wfokEJE9e/bArfETc3IMw7go2CZQUvrhhx/cnAxkatko6dVq1aqVrrnmmsA9DcO4HCDrThYVFTOchtdff92VjoaiGAhCCAiX4IQRKZ44caILhhiGEXsQoHzuuedc4IHyVkpKU6ZMGbg1/mJOzp9ASo9NmZNK6tSp1aFDB33++ef6+eef3YdUtGhRV3OMhCZSexh6TJWnKft8DdlMnaa0YNWqVa634d/Ay6Y0CKU1Uv30PaB2UaxYMXdyC5WInWEAWwYDxNgwUQZE0enJJ59064F5PKwTwzAuDSKvKB5yHqIHh9k09L2QNQ3lcwH7wrp169xgQRRNMayqVavmzqGGYVw9gmuRACTnaoRBOEcnFLXUmE4OH4bhM2vWLC9NmjTe/Pnz3fXDhw97FStW9EqXLu1FRES4Y8DvL730kudv4oEjf8V3mtxjK1euHDjy77Rv397zHSf3/GfPnvXmzZvn3X777d6iRYu8c+fOBe5lGKHFpk2bvE6dOnk5c+b0MmbM6PkbqecbZn9YM4bxnwkP9/xN1/M3w8CB+Af7/Pbt2z3fuXHnolKlSnlhYWFxbv/fsWOHV716dS9dunTe8OHDvdOnTwduMQzjSsO598MPP3T25I033ugtWLAgwdmQxYsX90qUKOGVLFnSsxBLgAoVKqhIkSKu/tn/jFz5Dek9Gj5PnToVuFf0QMVbb73VDVX8O2644QblyJEjcO3C8A1E53WSGcLbZi4Ng5qYMu1/aQP3MozQ4vrrr3czqIg80zfw9ddfOxW2xx57zCm5hIeHB+5pGP+B6dOl6tWl7dsDB+IXzKv44IMPVLlyZZcdpcSEPjhq6ONaJj937tyugoFZWyjBdenSxVU3GIZxZSGD2q1bN2e7VqxYUV999ZXuuuuuBF0NZE5OAErEmATve8CubAzuuOMOnThxQitWrHDXYcOGDa58LQilBTt27NC3337rSs5wkGJCCRzG3oEDB/5y279BzwOqVijY4OhQPkfj95/n/QRvo4yO1xsTHsv8Ex4X87aDBw9q5cqV7rn27NkTOGoYlwbTkjFo5s+f7xSg+M7RP0DpysyZM50RZxiXDHvub79Jr73GBOXAwbgPvSwECB5++GFXTkKZMoYJ0tBxuc+N0rpBgwa5C6IEjRs31laGvBqGcUWgPI3AOLPu+vXr5xTUKB9P6JiTEwOGH+JU4DAAzg4ZFpqsgw7Kvn37lCtXLvc7zsWyZcuc88B98aC/+eYbdxswtA0tcqZRkyniuS8UnJMlS5a4XqAUKVKoY8eOmjp1qhYtWuROGHjswGto3769Myo3bdqk+++/313HsOTvcwIFHBkmYnMfHC6i72SOaGadPXu2u49h/FfIYGKshYWFub40vqc4OtTmM3gs+L01jIuCJnYGEo8bJy1cGDgYtyE4RpaDtbFr1y53rmA2VYkSJeJFHwvnLRTXCBz++uuv7n3OmTPHOXaGYVweqDRiODC2H3PtJk2a5PYV+ssNc3L+ANFoNmIaJgHPmKZPNmYyHnyZYgoN4NAwHZ4MClGqo0ePumh2EO77yCOPONUZStheeeWVwC3nB2dp5MiR7u8TDedkwERpGrmvu+46F+2jFAinKxgV4zUQKatZs6bq1avn0pIMZGOWCY4M4gdkcQ4fPuwyUu+8844zQHk8zVk1atRwz2MYlxOi0ExVnjFjhiZPnqysWbO6tUR2lHVAsMAwLhiMft9g1o03St26UZcRuCHuEdznKUnGqaHMk9K0Bx98MN4pH+GsVa1a1Qn2cH596KGHXNDvz9UIhmFcHATesemwC9lDKE+jXLxKlSrxIkhy2fA/KCMGU6ZM8fLnz++EB6ZNm+Zt2bLF8x0M79tvv/V8Z8HzHZnAPT2vY8eO3kcffeTt3r3798uePXvcbQ0aNPiD8MCLL77o+Yaf99xzz3nZs2f//fLzzz+72/v27ev5huDvz3Po0CEnQBAkKirKW758uffaa6+RUnK/w/jx470MGTJ44TTm+vhfcM83Jt3vNK7y+mO+Pp6XYzSk1a9f31u2bJnnO2/u/oZxpeD76W/IXosWLby0adN6OXLk8Lp37+6+i4Zxwcyb53np0rFhxjkRAvbwr776yitbtqyXKlUq75FHHnH7P8cTAidPnnTnQUQV7rjjDm/16tWBWwzDuBhYS88//7yXKVMmr2DBgt7UqVO9M2fOBG41THjgHyDlR+M/2RTSfdQ0lilTxklKI0IQc5ozmR3KwOidoUyHCxmT80HqnkgWTWCU8wQv/pc0cA+5jE3weSiTC8r9EfWiRM3/36lcuXLuWBC8eN9hke+QufIH5HwpEQBeHw2fweckmk7fEI2h9E7wumlsJRtlGFcSvpf0G4wePdpJWj766KMuq0g20Xd8XMaRkk++44bxt1SsGJ3RGTRIWrkycDC0oW/TN+hdvXytWrVc/yclwmRxmCWTUKKunE/pNQpWRpDJeuutt0ycxDAuEKp76PG+/fbbXb8b51EqdR544AFnYxrnwbk9xh8g24Ic7t69e931CRMmeLly5XKR6JiQ9SEbQzZn27ZtTjp38ODB7rY/Z3KQBR0xYkTg2l8hk8NznU/qb8yYMV7mzJldZoeMEv+2xYsXu/sSIfcdMM8/aXq+Y+YdOHAg8CjP69y5s8vY+IvCSZPi7U+fPt0bN26cey88fuHChc7bNYyrDd/VV1991StUqJCXMmVKr0aNGt6MGTM83wAK3MMwzsOhQ4TqPK90ac87cSJwMPRgv163bp3XrFkz9/0uVqyY9/HHH/8hQ59QOXjwoJOb53N58MEHvc2bNyc4mVvDuFBYG0izM2rEd2a8cuXKufEixvmxTM6/wFBDel8Y+AnUOpYvX14FCxZ014PQv0OGhYZ+pjwjm0tfDPB4/4upBQsWuCh1lixZ3POeD5oyETtAiQ1hAQQDYnLLLbe452I4HJkYXhcKPIgO0A9E/w5Nq2Rn+vTp4/4m9+/evbvLRJGtIdvz2WefudcFKHAQUSeKiGCCYVxtGHRLLfHSpUs1atQoJ0pAzf7dd9/tGinJkvr7VeDehhEgY0Zp2DD5G5g0YADhzcANoQGZG/ZW9mt60Ii00oeGCAxCMgllIN8/QQUDojeIkXB+JKuDdDbVEoZhRMP5b+/eva6/+rbbbnP91yin0XuDTWr8O4nwegK/GwFwEGjMp9kfOGkhHU1pwZ/1ximxQTUNxbLSpUv/Pj+H59i9e7fWrl3rngcH6e/KEnBYYqbsmcOTM2fOwLXoLzqGYJo0adxrQPqZn8h0kvanlC4oN8prZUp2mzZtXIkaJw0U4EhlotpDYysKHDyW100JG6II1qhmxDY4+Uix4/DQiE3JJspsTZo0cd93Mw6NP9CnjzRiBOorUsmSgYOxB/v0xo0b3feXmTeUZ7EPMy8mGDAz/gqfGYI9CPQgUtCrVy9X2mrnJCMhg21HYHr48OHavn27Oxeisss8x4Q89+ZCoAye/YOLOTlxHLIwffv2dQ5QEAxEHBqyR4YR1yBwgLIhOv9TpkxxjjrGD8YikXGrPTYczF7ynQnVri0FZP1jC4wQJNPJkBPg4rvKQL58+fKZQXIBEOQjWNe/f3+nvIhz2K5dO3MOjQQHawE1wsGDB7tePvrEqXgg+G2BvgvDnJx4RKtWrZx0NQsByWqGLpJRosTNImFGXAZjEeORaNa4ceNcdpXvNcIaSJ8Hs6aGEVts2bLFfTdxyCm3pGQZ4/z666+3/fciwRShRJUyNiS2r732Wic3zfw6M+6M+A5VOAsXLnTtB4wGoTyNlgPaJeKbtPyVxpyceAQKavTiTJ8+XcWKFdO9997r+oPsBGvEF9iicOSJbmH8oC6TP39+N4MKoxKD0jCuJr/99pveeOMNffTRR27uTaNGjVwPDmWVqGQalw7GHn06KLFRvkrvKz1NlFUbRnyDyoV58+Zp2LBhzrlBhZe+G5QYY1boGBeOOTmGYcRJENtYvny5c3amTp3qjpHFpLylQoUKLuJr5UHGlYBT5ebNmzVkyBA3xR9npnnz5nr66addWZoFli4vlO0w3oBoNhUKZHA7d+7syrBtjRtxGfYSnBtGfyAqQN80wWkCJQRMGFVi3/FLx5wcwzDiPKjOoM7EBWGQQoUKudlTzI7CELKIegJk27Zo9bV06QIH/jtnz551amkYI6gb8d2i3wajG3EX48rC7LkXX3zRlQRi+D311FPus2fOmzmWRlwCc5uqBAJ0ZCcJmtBr06lTJ9WsWdPNkzP+O+bkGIYRb0CYgAGDDPBFPp0TBY4OpWzFixd3wxdDEeTiGQq5c+dOp3KI4iHQU0ckj4063WU01hMEd98d7eBMnCj9h1IPTouUoRFhRS0N5S8cGpxovlcm6nJ14f+BQYijSXaHNc3/gmGIKJFa1NsIZcja7Nq1S5MmTXLjEVDerVy5stq3b+/k063n7PJiTs5/gI+LBtMdO3a4Rn/qJy+lbpJZOMzGiQn/EDZspHP/bJgtWbLEyUgTxTofvC6aNokQVKlS5S8zfQwjIYB8OqVErANOKkyGpneH2Ts0MoeaMcSMLPo4eM0NGzZ06/jgwYNu7hUqiQMGDNDNN98cuPffExYW5qRFmYuVoJkxQ/4/XHr6aal/fzbVwA0XDnv7DP953n//fdcbwueKWhozbsy5iV1YH2TVECdAkATxEc6JrHHLqhmhBN9V7DzsNiTlGRVCv1mwvLpcuXLO5jMuP+bkXCJEjL/44guXJidajPoTJTNEWxm4eTHeOCl4msyIRqEYhSIP0rg8J4uBfxJGTzB9SQMmDdfPPvusu/5neG00rtGsydC5smXLBm4xjIQFWxpDc1lHOAsMzMUYwtFheC+qNcGsSWwTHO47efJk1a1bN3A0+j3Q1I7SDs7OPxnXiI+QXXj++edVtGjRwNEECqezoUOl3r2lkSOlRx8N3PDPEGlFrhVnEyljHE0irfTcEGk1Jb/QAmMRmfm33nrLDRHFwcERJYOLKIkZj/8Pe8nUdwdq+uzF2u+lV9mbiyqZfzzx2TNKnLWI6jxYUwVy2ff7coENx+wnAiXs4evXr3el1OzvXAiaWCn1lSWmk8MCMC6AiIgIz3dIPN/JCRyJhuO+4+GNHz/e8zfewNELw18Mnv+F99q3bx84Es2OHTs839v3hg4d6vkn38DRf2fp0qU4rJ7v5ASOGEbCxnf+Pd949fr16+fdfPPNXooUKbwSJUp4ffv29VatWnVR6+tKsG/fPrdmfScncOT/OXnypFe+fHnvzTffDBzxvK1bt3qTJk1y7yk8PNy9P95b8uTJ3X6xZMkSt6/wvtasWeNNnTrV27RpU6y/z6uK/7l4LVt6XqZMnhcWFjh4fo4ePeo+z+rVq3u+I+PlzZvX69y5s7dy5Ur3+RqhDd/rFStWeL6T7/+7M3m5c+d252nWQYL6zv8L56LOeEMerewVrdnRO46d4n82h3f/5r3Wo4mXt9Cd3ux1ewP3/HvWrZrv/brtaOCa8WdOnDjh+Y6N17BhQy979uzeNddc4zVq1MibNWuWd/DgwcC9jKtB8eLF3Xm+ZMmSnoU7LpCvv/7aNTdTChYTStaYyE4W5cCBA4GjFwalM+crn/E3anXt2tWl5JkTcqFY9Mow/gjzBRiMy8BcMqdE18qUKePU2Zg/cN9997lenotdu1cDXjtlp5SiARFrGrDpMxo4cKB7T+w/SMejOsdPothEEpkaT58SewmlPKj4JBjIfpPNueUWBolJ69YFbojGPwe6SOtLL73kSkbI7pFRY/geWXAagv2TozUBxwGIiJcqVcoNYiVjSzZn5syZbpRC7dq13XpHOCKhkyhxIqVInsK3EZJH2wn+53ZNjvzq2G+UGtx4Um3b99aRiMCdz8P+Xxep3TMDtDc8KnDEADKKfO969uzpKgTIJJK56dixo+vno+SVQda+Ax54hHG1Mav4AsHJof/mfNPWmdNBecOKFSucI4TyzsSJE50hgoHFBozhcTGwYDjJ0otz5swZt1iC5Sxs2qNHj3bGGbWeOFjnAylC6pVJ6RtGQueaa65xZaWsHUpdhg8f7gxeSkaDfRcIASBdGwpgjLDfMHASmIXFXkMPDz9R+sLIQ7QA2J/4PTIy0t0XQx2HjjJaSrASFGnTSu++K/8DlJo3R4rPyRDzmTFIls/mhRdecPvzrFmznAPMYGV6Ii1YFPfgO05AgPkinIdfe+0111v14IMPOvUqzsH0Rxh/IllqPdqsrrYs+UJz1uzWnvXz1aFZC73Yt6cqlKypOb8eUMSZQ/rk04+1dvUqTRg1TP9bskE/fz1RrR99Qi9066hKd7fQ+r0nA0+YMOD8wXeNsijKWgmasdfiYH///feurYC5TiYoEPvYbn6BYPwQWT3fCRCRAIwNBjqtXbvWOR8owaB5jtQlEVdkAy8GnpMoLYM+6fuZMmWKe26gdhxlJurFcYZwgmKC4bZt2zb16dPHDaxr27Zt4BbDMIKOQbNmzVzwguZ/1ipriugvAgUYvAwfZd1ebIDicoGzgshJMHvMZH0CHTgw7C9EEc8HwRGaXVFo4z3wHH9333hLokTy8uTRqXfe0emNG/XzXXfpJv//Su8S+ymCDgz0pGaenpvUqVObQlc8gPMzUXPOjYhG8P3H+Wd9M8uIACQOLcp5nCcNKU++goo8fVrbd+7Tt9PH6cwtVdWz34uqWvqIxoybo+QpM6nRI/WVLWsWNWnTUbXKFtTH772mYk3aqVe/vsoV+YOmzo22TeIjfE+wsRC8oO+RTDp91G+++aZTwkTtD4VM9mf2EoSobC8JHczJuUAY1EQG5XwbY/AY96G5Ofg7X3YaIpELvNiUOUYJxhXPw+bMzyA4QESrkDYlOk3JTUwYlrhy5UoX8bXFZhjnJ1guSolX79699eOPP7omfwwkonGUHpDhwTAiQkdJ09V0Fvbt2+fWOWo8nGQpVSPowfV/mv6OqAnBFR5TvXp1p9aYkCATh3Jl//79VbZNGz166pTybN2qMblza8G8ec4BxOhlb7b9MX4SXNtkbinVpCKidevWWrhwoapVq+ai7pR0EjhEuCMhc+LEUSlFMmXJklH1nh2v4S2raMN3C/TTL/v9PeT8n02/95eqRZksWjM3TNt2H/Pv9w+1bnEQAkzs93xfCBYzaJqySKoAyN6QEd60aZOrpKlVq5azyWwvCU3MyblASElidPDl/zNESokg3XXXXYEj/x1S7Sim0TfwZzC8KFF799133Sb+502aSCWlcjhXhmFcGGR4ypcv7xTNqKdGnY05HAQN6tWr58pekP4kk8LauhwZnr97jmPHjrmTK5mlO++80xljr776qiuz4jHBSDSODK+bC4EUMk9I6xLB5r7sDfTrBO8bX2GvxEkl8FOnTh0XacUgQX67qf95JHrnHd3z1FMq6/8PrRwtYYHxSfSddc1aRiEVo5UsHpUQBALof6XUPCH273w75ytlyFZIpQvn0KZVYerYpaeWHEyswsXzBu7xZ6K0dM4EtXt2gHanyaP8+TMHjsdd2B8pZ6Sfhkoc+hhxhAkg49AQMKZlgO8P3xsy6qGi0Gn8M7bbXyD169d3c2iC9fExwRgiOvRP0dWLAaOEEzRNsTfeeGPg6P9DGp5yG6K69NzQSxATIr0szmeeecad/A3DuDgoTcW5wDBCup01zpwUMiv8JKDRtGlTV6LAifFS+njYS4KCADSvIjBA+RzrmigzhhjN8dR1k83FIGN4HCdh9hqcHSKN9CLgnCFWQiaKfQNZexrqeU7kSylvI3ASn8AoQSiAjA37LzORcAwJRNFvxWeDJHQt31FM4/+vfA+V5o3Ao42ECNUVNIJzfmVds36RZycoeMcdd7igwogRI5wxmxAyPJsXfaquY+erw8BBKpb+hEY811mpSz+sJrXvUpqkBE7O6Ji/zhIlSqokUWd1+vhJHd62Wl1btlPFx/vo/vLFlMx3eiLCT+rYibgVRMGh3bp1qwsIdenSxQWM2UO6d+/uAsVk9OnXY48hY4MNaLOY4h42J+ciwMDhpEmPy3XXXecWCccwLIjwslkygBBFIwwRnA8UkZh3Q/03ZTExoRGWSCM190SSiMayuPgbRCUpT6ERln8RzgwLjrpQjCCMIwwwTugoeYwfP96d1DG+qDnGIEJ4AAOHBtvzCSYYhnFxkCmh6ZQJ+KwzMixBFTSyvdRkU9ZAEOLfyheo4z6feiIDPTNnzvyXgcCHDh1y+wsODs+Nk8TfZd8gy4z4SfA6z42RhkABjyNwwr4U10sqeC+Um6EchwNHyQgluzh5BHf4yT5rymjGhUIJKkEAzquosRFw4NzMWkKlDeOX3gvWZFwE+2Fx2Kd6vncPrTl7vZ5/rrUyJ/W0fesqLfj+J1Vu8Ixa1r1TKc6d0Zi+j+qDpdeod49Gmv3OC5qwJEJjPvxAVQok06N17tP6k9dq4JAXNW94K21JX1+dHrtFw/t00K9JymjsO8N063WhOyyXoBB2GEEpypG58H8neM0+yWzBYCkjfZns60bcxIaB/gc4ybJImKyOIcPwPTbD4IKgMQ3jg9uoi2fTxBEiEkvdPwYIIAxA+pNIAk2vwQGjOD38jnMSfE4aonGWyMoQaWAxsjB5LURsuc7zUs6CcYMx07lzZxfNxGmi8ZISDiRmDcO4PJBJYL2xPjG6iQyz3hjuiVFENpVsEOsuuO6Ni4PTExkoDE8irhiifObspziURN5xKvnMTcnI+K8QuGQNk8mhLJXvG+dqgo2ce8kCcb6lfCmulD2yhnZt/UXH/5RoSZomjbJnzaG0KZMpGPqIOHPEf797lCZTLqVLflr7Dp/z11pOJdE5Hdq/R4dPSfny5lD4if3asfuIsuS8VonCD+hUVBrlypEppEqDcF5xavhfsn8sWLDA7SX0LObKlcuV8xIUoSWAwBGCFVbKGj8wJ8cwDOMyQkYVp4cMLEqMZHdpdiZwQWaGbC1ZVk6qBCGMv4coOg4jmTKyNajfkZXCsKTJFwloHEcCPJdslNALNXmylCGDfG80cNAw/h8i/8E+DRxsApZkbsmwEogkgMF6xvmhT9ac7NiFWWcElMm001NJWT8BEfYTAr38ryhJ5EKQhNJFFGyN+Ic5OYZhGFcItlSiiGRacXYoM+UnJWXcRjkVJ1rkjOm7SajwWRA5R2SBEjTKbXFu+B2nESeGbA0lJJQCUkJCRuyylNyhktetW/QsnTFjpIcecrLThnE+gmsao5nvKN9VLjjg3JbBd5YpEWdds6aZv4QBjeNzyY648QeC/wMulObicOLMUFXDnkEpL/C543SS4cUR5UKgyf4XCQdzcgzDMK4inJiZsk8TK0YSJW5EE6n5Dyo2EiGm9JXSCWSfuU7JalzvowGi4pTbkpGhDh7DBAOFUhLmftEziKFICQmGIiUk1MZf0V5CGsuZIfbFF9Lo0dGOjhlBxkVA4II1TX8Haxrpcpx2wNBGOAiHB3U3LihyMb/KMgh/D3sFSpDsF2TSUL3DmSSjRg8e1ykhZH8kG8OeiUPD3kG5Py0EtAAYCRdzcgzDMGIZTtiUVnAhEomBRMkFRhI144ibMB+L0iyMJa4HjaRQHV7J6QRHhvfABYPkl19+cQYKpXw4eshfIxZAHw1GCWUk9DDxHnlvVxUM0latpDlzpFGjzNEx/hNkb1nPOPF85ymZQm6ePhCMdsqmMMJxgPjJ+qbfh+89F4z2hNC/hxAKZWTsFfzkc8NxYb9AXIleZXqb6Y8i0MO+R88MvcpccBj5DHFwyPgaRkzMyTEMwwgxOOFzYifTQSkGJ3scH4bS4fwQ4cQgwjnggiIQpW84P1wPGkqc9DGWrkQWJNinwGvlwowwRFCCRgkXSnooHeGCgYLqJEIsGCZEW3HaKD3jEhIRbd/A0hNPSGFh0muvSc2aJeDStUgd2b1NO48mVrEif1QDDTUO79+nlNdkVqpkoesUsF4orcKAZ13j6JPB5DrHWT9keVkfrGF6fVjTrG0yuvTvEdBgXZO54BLKRj1ZaZwWLmRjgr+T8eI90/jPT5wX3n/wwufE+8KR4TOg/44LTiClZkg3s/eZgItxISQ4J4cZFqSUOTkbFwfRYtLtbDSGYVxdiHji5HDBOCArEnSEcHyCFwwKjASMIaKeODlkS3AwqEXHcMBA4HYMiZjgaHA7JwSyLERVIebvQTVHDBIyNMEIbHAQMn+HCzK7OF1EWblgpAVvC2lZZ95np07SlCnSK69EZ3fimEG1cfF0vfTKW9pyJrVaPNVLeaOWa8Rb43UsbT61fKqb6lUsod0/fqf+g4bq6DWl9eqg7sr5J5Xc/dsXaVC7LgpLfKdWTfE/h5AlUp+MG6fK9R5TtrRxq/QLk4u1xbolw4PBz3pGCYyfXGe94xiQ/cHJYW0HnRzWN04R65h1RdaXNU7QIAj3CQohsBcElVovlmCJKfCa2Y+A/QC7ij2BPYBsFa8ZGyumk8Nj+J33wN7Aa6YUl30Bm4ILr5v3E8zWcD9zZoz/QoJzcigLQQGFRWhcHDg5PXv2dAP3DMMIDYh8Bg0IfuJ4YBQxd4d9DkOJ6xghbPEYUxgoGCYYJf8GRgbGCD85UWB44DRxCWaTMLCIOnNbMIuEQRU0ruIc/ueoZ5+VfONZ/fpJnTvHreGh56I0e/RzajF+g5aHTVLWNJ7ef+5hPb8ij9bOeVNpAncbNaCvSjXvrLK5MgSO/JHF47vp8Wme1oewk3N63xpNXXxCDWqWV5J4lHRjrQZ7Ubgwl4t1HAwyBNc2a5jbgk4Gjwk+DnBqgo4CwYVLzZgiDBJ0bHBayDoFs0nYBqx9fqefjv2CC44KTgx7Bb+ThWFfCF5weKwnybiSJDgnh4XJRhFs8DUuHDYyNjA2MsMw4g44QhgpbPH85Hrw2L/Bug9mXoK/Y5jE+wir7wSqVy/p9deloUOjhQniEKd3LtMddzRW/5kLVePGrDq48WtVrNJWb89boTvz+25OxF69/Mpn6vjsU0qZ9PzewfIPe6jZlLNaPzl0nZzvpn+ixIUqqVyh7IEjCQtsGS44IKxnbJyYa5vABw4QkIkha3SxEKwgSwQ4NmRbgD2A24L7AtfZG7hgVBpGbGM9OYZhGIZxPohcjx8vUaJbvXrgYBzBC1ffxndpS/EeGtf9AR3eMEtlyzRTw2Gf6sXHK2v30un6PrKI6t5ewLeUwzX/w3e1dv9RLVs1XznKtFK/dg/qx497quZb6zS8Q2MtmjVDWyNzatSwfsqeKVXgj0gnd6/XqLfeU6J81+v00WNq3rqbsp/drFFjJvsf30HNWrpebXu9rrx7ZqrP88N0V8eBOrFgpA5ef5+WfTJOOW5/TO8MeU7rp/TVgO9S6OPXuin1/p805oMvdfr0Ds1du189XxquxEvHqM9Lo9Vg8Bj/dQ1SsSdHqmX5PJoyYZLurtdUGVMm1N4pwzD+jphOjrndhmEYhhGEDFbr1nHPwYFEKVSrTh19M+MTnYyI1Jyp36tjz4aaNP4D7TtzTss37lfpwrmVSJ52LPlUH21KpYaPtlD3J1vosxG99cOG6Ih/phyFVb9+Aw0f/bbKJv5eXd+cpv+vg/C0aOpo7cldRW0fe1zlCuZSokTn9HqvXspdrYEeeaKTmpXNpGf7DlX+++spY2SkwtMU1PNjvtYb3Z/Vmz0fU64bCilzailboUoa0eNJZUqRWC9376Ob6jdX83Y9VC3PUfV8eaxKNXpUSQ4cVZLMJTVswtdqdUchHfhllc7mKGoOjmEY/4o5OYZhGIYRTyhR6X5l3LxI837dpp+jMqthnQeVdPtCLVm1SqdTFlCeQEZmyewwbdm8XtOmTdOin32nomd3XYvnEZOkqVW+QnltXPGTzgQO+Z6UCt12h2b3f0r1Huuos9lvV5bUBzR/zhot//ZL//mm61TOCurb5gElC/gh2TJeE/2LT8E7qmnft59r5/ET2rT1sHLnyOgf3aV5s9bph7nT/MfPULqSD6ljw0q/99v8/+PP6ZcNm1SoYKHAdcMwjL/HnBzDMAzD+DdOn5YuobfhapM8W3E9UCm73uzbU1lK3K/M196suwqm1JARHyv3TQUUlFJInTa5kqXPq6aPtVCLFi3U+P5bfYvgr32rZ86c8p8jh2K2ime/oYqmz5uoirnP6smHm+rbjceVKu0xFbi5tnuuFi2a664iGRR+nmL49NkK6dZrz+qTT79QVI5CSudeUCr3+BLl6gUe/5hKXZs8RvYomqgTe/Xj4eQqmvf8ogmGYRgxMSfHMAzDMP6Njz6SqlaVli8PHAhVkqnOgw9o6Q9bVf2eQkqcKqNq16qoA3sOqWDuYKN+IpWp/pD2TBuhji+8rtmzZ2j0x18pWaKkSpo6jU7u364dh07r6K5fNXvpAbVrVUsxpy6tnf2O5u1PrXbPD1D1kpkUEZlWDZpU0/NN62v0p9M0/YuP9b/vdii1F66jkWe192B0E7wjaWrVqHmXJox8XwXzB0cTZFb9h29Xl0ca6b0p0/XFZ+9rwfqjSnr2tI6dO+c//rC7167fflHmnEWUyhSGDcO4AJL08wn8bhiGYRjG+cicWZo0SRo7VipYUCpQAOm5wI2hRdZc2ZUm502qVtZ/nb5DkzFLZuW4vrhuK57fvxZNmszX6Z7yRfVt2Fda8dMRVW36iG7Kl02Z8hVXwWT7NXPmN9q8/YhqP9Za5Yrm/f1xEOUl1bGtazTjqwUqXKuRatxaVMVuraxr053RtJmzdCgqn5q1rKH1s6Zo/VFPZ4/sUY7CpZXrmuh5LRmz5lDKLLl15+0llSwQai1R/l5liPL/7uy5Ck9XXI0bV9J3n36o7V4anTq4U/mLl1XUoQ3KWfQ2ZUptXo5hGOdn5MiRTv3PXUxdzTAMwzAugH37pDZtpHnzomfpIDEdkNo2DMMwYh9TVzMMwzCMiyVbNmnChGhH57nnpI4d5YaIGoZhGCGHOTmGYRiGcaGkSSMNHCi98UZ0n06tWtLWrYyrD9zBMAzDCAXMyTEMwzCMiyFJEqlly+geHRycu++WFi82R8cwDCOEMCfHMAzDMC6Fe+6RZs6UcuSQatSIdnQMwzCMkMCcHMMwDMO4VIoUkb74QurUScqSJXAwFPAUfnyfflyxXEdO/XX+TXzg9OF9WrF4hU4HrhuGYcTE1NUMwzAMIxbY9+v3Gvn2u/ryh590S6WqujZ9Ep07d0Bnk92gRg2bqNB/GHp57txJfTa0g3qPmK8xc1eqYoG0gVsuL8tmT9Co8Z/q16OJVfXO26SzEdp1IlIVq9VS7bvL/mG+zmUl/IDeHPSC+g5dqqVHvtd1gcOGYSRsTF3NMAzDMGKZbIVu13NPPayf16xX3VY99Nxzz6lDu87KeWK17qtdR0s3Rw/B/DuO7V6iL7/fEbj2RxInTqOaj3dW9tRXNotT5r4mqnVLLv12PI06d+mm57r30FPVi6lP68b69NtfA/e6AqTIoica11REVGjOKjIMI/YxJ8cwDMMwrgS//SZNmSJFRQUO/JXkGTMpU6JESo6YgX9KTpMuj1r0eklVM+zW031eV9S58xdbnDm6T91bdNCG03/vxCRKlERJkgauXEGSJ0+hROL1J1LiZMlUsOSdui7DCS1bszn6DleIJP5nxsA/wzCM82FOjmEYhmFcCdatkwYNkiIiAgcujCTJMuuhutW0atqX2nkuUos+fV1Pt+ygnh2f0L0Nu2nXsWOaPet/WrRuhcI+GqmPZy/U/15/QZ3aPauurZuoapvBOh0Z7VidDT+hr2dP17DB/VTh9qqavvBnUaW+bNpotX3safXu+rTuqdteWw6d1vo5H2lg/94a+d6bGjhmknt81PG9+vj1YXpjcH/VqllRwz47v7iCFxWpkydP6vjxY5o5bZy2nrxede8r4247F3VC40b00YuvvqSnmjTVE71GaceOzerXsaYK3N1Yx85Ead7kUSpTMJ9e/nSZ1s6cpNqlCqv982/57/M9Pf5AeT059HPh7h3esU79uz+t/gMH6e1xXyoyyvPfz1nNfW+I2rfprO7tWqhK0946eOqsZr/eWXcUuV7vTf+fWjS4V+26NlXujDnVYdhkRfgfz1fv9latRp2020YdGUa8xJwcwzAMw7gSMEMHxbVUqQIHLpzUqVMr0fFTOn02QnNnfqkqLZ9Rr2efUtSq2Vq44YhqN2ihm/Km0L2NnlS9267TnEWr1ODpZ9T3uTb6bdIHWn0o2rFKliKt7rmvpjp266e3+9RWhw7dtOf0WX0zbZIqNO+snl3aKdXmhZq3brPGvD1WpR54Qi0bNFLBrCn9R3ua88Hr2pbxJj3Y+HH1bFJFvbp2045T7qn/wKk9G/Xe+Hf17htv6MOPZihvqbJKG8gizR/bTwtOlFSvLt01YuxwJV/+jobN3KhHatdWCkU7Y5VrN9WthXLo3DlPN1W/TzdkTaqo3MV0b7VHNbhnW00aNUH7wo9qyPN9dVPdZ9W7x7OqeXchJfJfoxd+Ul+HfaOabZ5R725tdfTbafph2xHd8+QTOrPjiDJeV0ljPwnT66+M1lO1SilTzrxKlkTKnaOgerz6snJemXYlwzBiGXNyDMMwDCPEOHT4oBJlz6j0yVKq86ujdXrtXI0cG6aTvuMTHnEucK9okmTIqReGDNZPs/+ndycuUlQE9wncGIMbby6rqB17tftspJ565T0l3fyt3hgzS8eO+vcPT6K7K9yop6vXULt+b6pIqQr+I07q+7DF2vTzSs2dO1cbzubTqIGdlPo8JXBpchdR26faqUP3HpowZZKu2zdDrZ55WUf91zFnznTlLBAtDZAkRSbdX720Fny1yH/2vyOpUvkeUqZUKZ2RkjJlKnknz2jfznVa9ONuFcmf090rT74blCRJYiVOmUHPDXlD+xfP1uj35in8FO8n+jNKmiSJMqVP5373vU01bvOI5n0wXkf8D2jhbydVOvcVk0YwDCOWMSfHMAzDMEKIiBNbNeHjWarZvLkyRx5Rl8fqaE/WEmr/TD1dm+2vaYfje39VmxbNlfrmCnqqQx1lSZM8cMsfCQ8/rRS5Mitjkgh1f7S6fk1VRB27NNT1udK72ys266WZn72sFJvmq2H9LtoXmVRp0kcqfY6b9UjjpmratKlqlM6pE3/0sf5CslTZVaLYdTqya4tOnpUSJU6s3dv/XyDhmkzZlb1AXt/luDjORZ3VqRPhOhUeHjgSTfjxXerYvL5O5Cujdp0eVq5MqQO3/JV8t9XRTeeW6POwWVKmkjr/J2UYRnzAnBzDMAzDiCVO7t6pfZ6nk6d8b0BR2r9rpfp16KBd11fTkG4N5Z09qHWrdqhg3ut0fN8OHTwZocjTx3XiTKSSJUuhiPAz2vrTGm3ZfFz5c+XSwR1bdTwiShEnj+h0VHIlShKlTZu2+vc7pamTpqlem9bKk+qUVi7erEL5C+jkgZ3afzxckWdO6q0h/XQmX1m98Fp/5U1Oo0pKVX24rr58ubP6jRir6dMn6e3PVyoblWwxOHHyhM5FnFVEhKdz56K0ec1CfTZ/gx5s/JiypZGatu2mxR8O1dItR3T22B4tWr9HLRtWUebM2XXy0F4dPHpKB7b9pr37j2vD6nXat++oThw/q8MnTrpitiOHDigq6ohSZi6iikXTacToD3XUf/+/bd6oyMjD+n7OfK1dt0835L1WR/Zs1+HTZ3X29DEdPnxchyIjdeDwkegXCknTqlWbhurT9S1VrlE6cNAwjPhIkn4+gd8NwzAMw7hKuDk5E2crS648OrT9Fy1b/J2WbNim4nfVV492LZQzQ0olSZZBea5Nq/lzFynH9TcoSxrfgUmbS6WKXKe81+bS0kU/6YbSFXVj/mT6/vtVurZIEaVNelyJsxRUqcKFdcetN2lV2EwtWf2T8pW+X80erKTkSdLr+sKZNXf2fGXLl1/Z0yfSqZSZVb5UYW3//ht9ueY3Ne3QSUWzp/f/ZkndWjS75s39Wpv2pNLjHZspe+r/93KYk/PVyp3KkTG1Nvy8Xt99t0g//LpVNR7toNYPVVbKpImVJf9NuqNoWk3+YprWbNyqsjWa6p6bb1C6zPmUN8lBzZq3WtkLFVT61J5yFy2jc3uWaO3uc4o6sVfZs2TUp9O+VrYcqXXqXDa18z+XvWvCNG/lj8qSN79SZcqkW8tVVblSWbVw/mLlLlBQGVNGKCp9Nv22YLbCM/qO1OH9KlislDKkQgFOyn69f9u2s2pS805TZzOMeMbIkSPdunYXGwZqGIZhGEZC4fhPX2vG7vxqcPcNMhfHMOIXNgzUMAzDMIwExc7lczToxRfV9f3lqlTuWnNwDCOeY06OYRiGYRjxnsRp0ytTznzq3a2DcqROFjhqGEZ8xcrVDMMwDMMwDMOI81i5mmEYhmEYhmEY8RZzcgzDMAzDMAzDiEdI/weuv2VwsIb3awAAAABJRU5ErkJggg==;" vertex="1" parent="1">
          <mxGeometry x="550" y="40" width="370" height="165.95" as="geometry" />
        </mxCell>
        <mxCell id="fivIkqlBEdwUjNxBshIO-2" value="" style="rounded=0;whiteSpace=wrap;html=1;" vertex="1" parent="1">
          <mxGeometry x="440" y="240" width="80" height="30" as="geometry" />
        </mxCell>
        <mxCell id="fivIkqlBEdwUjNxBshIO-3" value="" style="rounded=0;whiteSpace=wrap;html=1;" vertex="1" parent="1">
          <mxGeometry x="560" y="240" width="80" height="30" as="geometry" />
        </mxCell>
        <mxCell id="fivIkqlBEdwUjNxBshIO-4" value="" style="rounded=0;whiteSpace=wrap;html=1;" vertex="1" parent="1">
          <mxGeometry x="680" y="240" width="80" height="30" as="geometry" />
        </mxCell>
        <mxCell id="fivIkqlBEdwUjNxBshIO-5" value="" style="rounded=0;whiteSpace=wrap;html=1;" vertex="1" parent="1">
          <mxGeometry x="800" y="240" width="80" height="30" as="geometry" />
        </mxCell>
      </root>
    </mxGraphModel>
  </diagram>
</mxfile>
